<?xml version="1.0" encoding="utf-8"?>
<!-- Generator: Adobe Illustrator 27.5.0, SVG Export Plug-In . SVG Version: 6.00 Build 0)  -->
<svg version="1.1" id="Guitars" xmlns="http://www.w3.org/2000/svg" xmlns:xlink="http://www.w3.org/1999/xlink" x="0px" y="0px"
	 viewBox="0 0 562.139 652.089" style="enable-background:new 0 0 562.139 652.089;" xml:space="preserve">
<g>
	<g>
		<path style="fill:#282828;" d="M428.188,418.857h-37.674c-1.217,0-2.204,0.987-2.204,2.204v19.091
			c0,1.217,0.987,2.204,2.204,2.204h37.674c1.217,0,2.204-0.987,2.204-2.204v-19.091
			C430.392,419.844,429.405,418.857,428.188,418.857z M428.392,440.152c0,0.113-0.092,0.205-0.204,0.205h-1.607v-15.704
			c0-0.112-0.092-0.204-0.204-0.204h-34.052c-0.112,0-0.205,0.092-0.205,0.205v15.704h-1.607c-0.112,0-0.204-0.092-0.204-0.205
			v-19.091c0-0.113,0.092-0.205,0.204-0.205h37.675c0.112,0,0.204,0.092,0.204,0.205V440.152z"/>
	</g>
	<g>
		<path style="fill:#282828;" d="M428.188,470.357h-37.674c-1.217,0-2.204,0.987-2.204,2.204v19.091
			c0,1.217,0.987,2.204,2.204,2.204h37.674c1.217,0,2.204-0.987,2.204-2.204v-19.091
			C430.392,471.344,429.405,470.357,428.188,470.357z M428.392,491.652c0,0.113-0.092,0.205-0.204,0.205h-1.607v-15.704
			c0-0.112-0.092-0.204-0.204-0.204h-34.052c-0.112,0-0.205,0.092-0.205,0.205v15.704h-1.607c-0.112,0-0.204-0.092-0.204-0.205
			v-19.091c0-0.113,0.092-0.205,0.204-0.205h37.675c0.112,0,0.204,0.092,0.204,0.205V491.652z"/>
	</g>
	<g>
		<path style="fill:#282828;" d="M400.547,117.357h-0.009c-0.272,0-0.495,0.218-0.5,0.491l-7.5,411.125
			c-0.005,0.276,0.215,0.504,0.491,0.509h0.009c0.272,0,0.495-0.218,0.5-0.491l7.5-411.125
			C401.043,117.59,400.823,117.362,400.547,117.357z M401.976,68.826l-0.093,0.078l0.062,0.391c-0.061-0.226-0.498,0.59-0.74,0.604
			c-0.275,0.02-0.482,0.259-0.462,0.535l3.171,45.042l-5.042,413.625c-0.003,0.276,0.218,0.503,0.494,0.506h0.006
			c0.273,0,0.497-0.22,0.5-0.494l5.04-413.667l-3.279-45.341l0.315-0.342l7.091,46.839l-4.167,412.583
			c-0.003,0.276,0.219,0.502,0.495,0.505h0.005c0.274,0,0.497-0.221,0.5-0.495l4.161-412.663l-7.381-48.514
			C402.418,68.425,401.976,68.826,401.976,68.826z M402.168,64.845l-1.963-12.905c-0.04-0.273-0.297-0.461-0.569-0.42
			c-0.273,0.041-0.461,0.296-0.419,0.569l1.929,12.165C401.402,64.387,401.82,64.612,402.168,64.845z M421.535,69.697
			c-0.273-0.044-0.53,0.141-0.574,0.413l-7.589,46.578l-2,412.417c-0.001,0.276,0.222,0.501,0.498,0.503h0.002
			c0.275,0,0.499-0.222,0.5-0.498l1.994-412.338l7.583-46.5C421.993,69.999,421.808,69.741,421.535,69.697z M426.163,88.357
			c0.039-0.273-0.152-0.526-0.425-0.565c-0.274-0.041-0.526,0.152-0.565,0.425l-3.801,27.56l2.76,413.427
			c0.002,0.275,0.226,0.497,0.5,0.497h0.003c0.276-0.002,0.499-0.227,0.497-0.503l-2.765-413.354L426.163,88.357z M421.924,87.61
			c-0.272-0.031-0.521,0.17-0.549,0.445l-3.003,28.551l-0.74,412.5c0,0.276,0.223,0.5,0.499,0.501c0,0,0,0,0.001,0
			c0.276,0,0.5-0.223,0.5-0.499l0.737-412.449l3-28.5C422.398,87.885,422.199,87.639,421.924,87.61z"/>
	</g>
	<g>
		<path style="fill:#282828;" d="M344.779,605.552c-0.284,0-0.571-0.08-0.826-0.249c-27.167-17.954-34.415-46.077-34.415-59.863
			c0-15.929,2.241-34.799,18.866-53.982l3.29-3.786c13.165-15.133,22.677-26.067,22.677-35.231c0-4.314-2.875-9.85-6.203-16.261
			c-4.323-8.327-9.223-17.764-9.794-28.156c-0.804-14.605,4.734-24.627,18.518-33.51c12.968-8.358,29.003-9.796,33.874-10.043
			l7.023-249.655c0.229-11.916-8.489-17.365-8.861-17.591c-0.523-0.319-0.803-0.926-0.703-1.53
			c5.703-34.218-1.306-59.089-1.378-59.336c-0.149-0.517-0.01-1.075,0.365-1.461c0.375-0.387,0.927-0.542,1.45-0.408
			c7.304,1.877,10.214,0.216,12.781-1.809c0.652-0.512,1.593-0.4,2.107,0.25c0.513,0.651,0.401,1.594-0.249,2.107
			c-2.635,2.076-6.018,4.128-12.979,2.885c1.597,7.051,5.571,28.998,1.018,57.319c2.532,1.854,9.67,8.116,9.448,19.646
			l-7.063,251.076c-0.023,0.805-0.678,1.449-1.483,1.458c-0.191,0.002-19.312,0.327-33.725,9.615
			c-12.926,8.331-17.895,17.26-17.148,30.823c0.537,9.747,5.278,18.881,9.462,26.939c3.509,6.76,6.54,12.598,6.54,17.644
			c0,10.287-9.821,21.576-23.414,37.201l-3.286,3.782c-15.979,18.438-18.133,36.642-18.133,52.018
			c0,13.188,6.965,40.108,33.069,57.36c0.691,0.457,0.881,1.387,0.424,2.079C345.743,605.316,345.265,605.552,344.779,605.552z"/>
	</g>
	<g>
		<path style="fill:#282828;" d="M408.038,621.857c-16.559,0-31.473-2.299-44.33-6.833c-0.781-0.275-1.191-1.132-0.915-1.914
			c0.275-0.782,1.133-1.189,1.914-0.915c12.535,4.421,27.114,6.663,43.332,6.663c76.226,0,95.642-37.054,98.506-68.138
			c2.29-24.844-13.936-56.726-30.281-72.017c-14.628-13.684-17.195-27.361-8.583-45.732c6.761-14.422,9.246-20.135,9.241-28.348
			c-4.078,3.59-13.023,9.462-26.793,7.976c-20.96-2.266-24.089-14.725-24.089-21.949l-3.749-275.44
			c-0.141-1.211-1.041-11.646,8.359-19.693c-1.013-5.536-5.984-35.769,0.49-63.708c-5.99,2.182-20.051,6.37-25.717,0.049
			c-0.553-0.617-0.501-1.566,0.115-2.118c0.617-0.554,1.566-0.501,2.118,0.115c4.742,5.288,19.682,0.438,25.038-1.875
			c0.527-0.227,1.137-0.134,1.572,0.239c0.436,0.374,0.619,0.963,0.474,1.518c-8.063,30.783-1.054,65.719-0.982,66.068
			c0.113,0.552-0.092,1.121-0.532,1.473c-9.229,7.383-7.965,17.524-7.951,17.626c0.008,0.061,0.013,0.121,0.014,0.182l3.75,275.542
			c0,7.617,3.715,17.074,21.411,18.987c17.406,1.88,26.295-8.979,26.665-9.442c0.386-0.483,1.032-0.681,1.619-0.497
			c0.59,0.184,1.008,0.709,1.051,1.326c0.766,10.978-1.647,16.726-9.388,33.241c-8.069,17.213-5.775,29.46,7.917,42.268
			c16.861,15.773,33.592,48.735,31.219,74.483C506.552,583.322,486.526,621.857,408.038,621.857z"/>
	</g>
	<g>
		<path style="fill:#282828;" d="M358.537,612.941c-0.2,0-0.403-0.04-0.599-0.125c-2.57-1.121-6.531-3.089-8.617-4.224
			c-0.728-0.396-0.997-1.307-0.601-2.035c0.396-0.727,1.308-0.996,2.035-0.601c2.031,1.105,5.884,3.02,8.383,4.109
			c0.759,0.331,1.107,1.215,0.775,1.975C359.667,612.604,359.116,612.941,358.537,612.941z"/>
	</g>
	<g>
		<path style="fill:#282828;" d="M423.413,118.357h-23.75c-0.829,0-1.5-0.671-1.5-1.5c0-0.829,0.671-1.5,1.5-1.5h23.75
			c0.829,0,1.5,0.671,1.5,1.5C424.913,117.685,424.242,118.357,423.413,118.357z"/>
	</g>
	<g>
		<path style="fill:#282828;" d="M423.413,141.69h-23.75c-0.276,0-0.5-0.224-0.5-0.5s0.224-0.5,0.5-0.5h23.75
			c0.276,0,0.5,0.224,0.5,0.5S423.69,141.69,423.413,141.69z"/>
	</g>
	<g>
		<path style="fill:#282828;" d="M423.413,162.69h-23.75c-0.276,0-0.5-0.224-0.5-0.5s0.224-0.5,0.5-0.5h23.75
			c0.276,0,0.5,0.224,0.5,0.5S423.69,162.69,423.413,162.69z"/>
	</g>
	<g>
		<path style="fill:#282828;" d="M423.413,182.69h-26.042c-0.276,0-0.5-0.224-0.5-0.5s0.224-0.5,0.5-0.5h26.042
			c0.276,0,0.5,0.224,0.5,0.5S423.69,182.69,423.413,182.69z"/>
	</g>
	<g>
		<path style="fill:#282828;" d="M425.538,201.357h-28.333c-0.276,0-0.5-0.224-0.5-0.5c0-0.276,0.224-0.5,0.5-0.5h28.333
			c0.276,0,0.5,0.224,0.5,0.5C426.038,201.133,425.815,201.357,425.538,201.357z"/>
	</g>
	<g>
		<path style="fill:#282828;" d="M425.538,218.69h-28.333c-0.276,0-0.5-0.224-0.5-0.5s0.224-0.5,0.5-0.5h28.333
			c0.276,0,0.5,0.224,0.5,0.5S425.815,218.69,425.538,218.69z"/>
	</g>
	<g>
		<path style="fill:#282828;" d="M425.538,235.19h-28.333c-0.276,0-0.5-0.224-0.5-0.5s0.224-0.5,0.5-0.5h28.333
			c0.276,0,0.5,0.224,0.5,0.5S425.815,235.19,425.538,235.19z"/>
	</g>
	<g>
		<path style="fill:#282828;" d="M424.705,250.857h-28.333c-0.276,0-0.5-0.224-0.5-0.5c0-0.276,0.224-0.5,0.5-0.5h28.333
			c0.276,0,0.5,0.224,0.5,0.5C425.205,250.633,424.981,250.857,424.705,250.857z"/>
	</g>
	<g>
		<path style="fill:#282828;" d="M425.038,265.69h-29.667c-0.276,0-0.5-0.224-0.5-0.5s0.224-0.5,0.5-0.5h29.667
			c0.276,0,0.5,0.224,0.5,0.5S425.315,265.69,425.038,265.69z"/>
	</g>
	<g>
		<path style="fill:#282828;" d="M425.205,279.024h-29.667c-0.276,0-0.5-0.224-0.5-0.5s0.224-0.5,0.5-0.5h29.667
			c0.276,0,0.5,0.224,0.5,0.5S425.481,279.024,425.205,279.024z"/>
	</g>
	<g>
		<path style="fill:#282828;" d="M425.038,292.024h-29.667c-0.276,0-0.5-0.224-0.5-0.5s0.224-0.5,0.5-0.5h29.667
			c0.276,0,0.5,0.224,0.5,0.5S425.315,292.024,425.038,292.024z"/>
	</g>
	<g>
		<path style="fill:#282828;" d="M426.538,304.19h-32.167c-0.276,0-0.5-0.224-0.5-0.5s0.224-0.5,0.5-0.5h32.167
			c0.276,0,0.5,0.224,0.5,0.5S426.815,304.19,426.538,304.19z"/>
	</g>
	<g>
		<path style="fill:#282828;" d="M426.372,315.69h-32.167c-0.276,0-0.5-0.224-0.5-0.5s0.224-0.5,0.5-0.5h32.167
			c0.276,0,0.5,0.224,0.5,0.5S426.648,315.69,426.372,315.69z"/>
	</g>
	<g>
		<path style="fill:#282828;" d="M426.372,326.69h-32.167c-0.276,0-0.5-0.224-0.5-0.5s0.224-0.5,0.5-0.5h32.167
			c0.276,0,0.5,0.224,0.5,0.5S426.648,326.69,426.372,326.69z"/>
	</g>
	<g>
		<path style="fill:#282828;" d="M426.205,336.524h-32.167c-0.276,0-0.5-0.224-0.5-0.5s0.224-0.5,0.5-0.5h32.167
			c0.276,0,0.5,0.224,0.5,0.5S426.481,336.524,426.205,336.524z"/>
	</g>
	<g>
		<path style="fill:#282828;" d="M426.372,346.357h-32.167c-0.276,0-0.5-0.224-0.5-0.5s0.224-0.5,0.5-0.5h32.167
			c0.276,0,0.5,0.224,0.5,0.5S426.648,346.357,426.372,346.357z"/>
	</g>
	<g>
		<path style="fill:#282828;" d="M426.038,355.69h-32.167c-0.276,0-0.5-0.224-0.5-0.5s0.224-0.5,0.5-0.5h32.167
			c0.276,0,0.5,0.224,0.5,0.5S426.315,355.69,426.038,355.69z"/>
	</g>
	<g>
		<path style="fill:#282828;" d="M426.038,364.024h-32.167c-0.276,0-0.5-0.224-0.5-0.5s0.224-0.5,0.5-0.5h32.167
			c0.276,0,0.5,0.224,0.5,0.5S426.315,364.024,426.038,364.024z"/>
	</g>
	<g>
		<path style="fill:#282828;" d="M426.038,372.19h-32.167c-0.276,0-0.5-0.224-0.5-0.5s0.224-0.5,0.5-0.5h32.167
			c0.276,0,0.5,0.224,0.5,0.5S426.315,372.19,426.038,372.19z"/>
	</g>
	<g>
		<path style="fill:#282828;" d="M427.038,379.774h-33.583c-0.276,0-0.5-0.224-0.5-0.5s0.224-0.5,0.5-0.5h33.583
			c0.276,0,0.5,0.224,0.5,0.5S427.315,379.774,427.038,379.774z"/>
	</g>
	<g>
		<path style="fill:#282828;" d="M426.788,386.857h-33.333c-0.276,0-0.5-0.224-0.5-0.5s0.224-0.5,0.5-0.5h33.333
			c0.276,0,0.5,0.224,0.5,0.5S427.065,386.857,426.788,386.857z"/>
	</g>
	<g>
		<path style="fill:#282828;" d="M426.788,393.857h-33.417c-0.276,0-0.5-0.224-0.5-0.5s0.224-0.5,0.5-0.5h33.417
			c0.276,0,0.5,0.224,0.5,0.5S427.065,393.857,426.788,393.857z"/>
	</g>
	<g>
		<path style="fill:#282828;" d="M426.538,399.94h-33.25c-0.276,0-0.5-0.224-0.5-0.5s0.224-0.5,0.5-0.5h33.25
			c0.276,0,0.5,0.224,0.5,0.5S426.815,399.94,426.538,399.94z"/>
	</g>
	<g>
		<path style="fill:#282828;" d="M426.288,406.107h-33c-0.276,0-0.5-0.224-0.5-0.5s0.224-0.5,0.5-0.5h33c0.276,0,0.5,0.224,0.5,0.5
			S426.565,406.107,426.288,406.107z"/>
	</g>
	<g>
		<path style="fill:#282828;" d="M426.455,411.94h-33.167c-0.276,0-0.5-0.224-0.5-0.5s0.224-0.5,0.5-0.5h33.167
			c0.276,0,0.5,0.224,0.5,0.5S426.731,411.94,426.455,411.94z"/>
	</g>
	<g>
		<path style="fill:#282828;" d="M426.872,416.774h-34.021c-0.134,0-0.262-0.053-0.355-0.148c-0.094-0.095-0.146-0.224-0.145-0.357
			l0.688-60.5c0.003-0.276,0.183-0.493,0.506-0.494c0.276,0.003,0.497,0.229,0.494,0.506l-0.682,59.994h33.011l-0.496-56.663
			c-0.002-0.276,0.22-0.502,0.496-0.504c0.001,0,0.003,0,0.004,0c0.274,0,0.498,0.221,0.5,0.496l0.5,57.167
			c0.001,0.133-0.051,0.262-0.145,0.356C427.133,416.721,427.005,416.774,426.872,416.774z"/>
	</g>
	<g>
		<path style="fill:#282828;" d="M434.286,445.357h-49.871c-1.862,0-3.377-1.515-3.377-3.377v-22.746
			c0-1.862,1.515-3.377,3.377-3.377h49.871c1.862,0,3.377,1.515,3.377,3.377v22.746
			C437.663,443.842,436.149,445.357,434.286,445.357z M384.415,416.857c-1.311,0-2.377,1.066-2.377,2.377v22.746
			c0,1.311,1.066,2.377,2.377,2.377h49.871c1.311,0,2.377-1.066,2.377-2.377v-22.746c0-1.311-1.066-2.377-2.377-2.377H384.415z"/>
	</g>
	<g>
		<path style="fill:#282828;" d="M434.286,496.857h-49.871c-1.862,0-3.377-1.515-3.377-3.377v-22.746
			c0-1.862,1.515-3.377,3.377-3.377h49.871c1.862,0,3.377,1.515,3.377,3.377v22.746
			C437.663,495.342,436.149,496.857,434.286,496.857z M384.415,468.357c-1.311,0-2.377,1.066-2.377,2.377v22.746
			c0,1.311,1.066,2.377,2.377,2.377h49.871c1.311,0,2.377-1.066,2.377-2.377v-22.746c0-1.311-1.066-2.377-2.377-2.377H384.415z"/>
	</g>
	<g>
		<path style="fill:#282828;" d="M450.663,406.232c-14.461,0-22.196-11.713-23.234-15.75c-0.069-0.268,0.092-0.54,0.36-0.609
			c0.266-0.066,0.54,0.092,0.609,0.36c0.988,3.844,8.389,15,22.266,15c5.117,0,10.232-1.789,15.204-5.317
			c0.226-0.161,0.538-0.106,0.697,0.118c0.16,0.226,0.107,0.538-0.118,0.697C461.302,404.381,455.991,406.232,450.663,406.232z"/>
	</g>
	<g>
		<path style="fill:#282828;" d="M479.205,401.19c-0.165,0-0.328-0.082-0.423-0.232l-4.685-7.395
			c-0.799,0.893-2.594,2.836-4.726,4.75c-0.207,0.184-0.522,0.167-0.706-0.038c-0.185-0.206-0.167-0.521,0.038-0.706
			c2.833-2.543,5.057-5.135,5.079-5.161c0.103-0.121,0.254-0.184,0.416-0.174c0.158,0.011,0.302,0.097,0.387,0.231l5.042,7.958
			c0.148,0.233,0.079,0.542-0.155,0.69C479.389,401.165,479.297,401.19,479.205,401.19z"/>
	</g>
	<g>
		<path style="fill:#282828;" d="M339.789,401.857c-0.008,0-0.015,0-0.023,0c-0.276-0.013-0.489-0.246-0.477-0.522
			c0.807-17.906,11.949-28.408,21.153-34.064c0.235-0.146,0.543-0.072,0.688,0.164c0.145,0.235,0.071,0.543-0.164,0.688
			c-8.998,5.531-19.89,15.79-20.677,33.258C340.276,401.647,340.054,401.857,339.789,401.857z"/>
	</g>
	<g>
		<path style="fill:#282828;" d="M363.493,366.496c-0.18,0-0.353-0.097-0.443-0.268c-0.128-0.245-0.034-0.547,0.211-0.675
			c1.026-0.539,2.083-1.057,3.141-1.54c0.252-0.115,0.548-0.004,0.663,0.248c0.114,0.251,0.004,0.548-0.248,0.663
			c-1.041,0.475-2.081,0.984-3.091,1.515C363.651,366.477,363.571,366.496,363.493,366.496z"/>
	</g>
	<g>
		<path style="fill:#282828;" d="M369.77,363.645c-0.198,0-0.385-0.118-0.464-0.313c-0.103-0.256,0.021-0.547,0.277-0.651
			c7.308-2.947,15.469-4.637,22.393-4.637c0.276,0,0.5,0.224,0.5,0.5s-0.224,0.5-0.5,0.5c-6.8,0-14.825,1.664-22.018,4.564
			C369.896,363.633,369.833,363.645,369.77,363.645z"/>
	</g>
	<g>
		<path style="fill:#282828;" d="M387.903,517.005c-2.177,0-4.014-1.697-4.155-3.9c-0.147-2.293,1.599-4.278,3.891-4.425
			l43.577-2.795c2.3-0.146,4.278,1.598,4.425,3.891c0.147,2.293-1.599,4.278-3.891,4.425l0,0l-43.577,2.795
			C388.082,517.002,387.992,517.005,387.903,517.005z M431.486,506.876c-0.068,0-0.136,0.003-0.205,0.007l-43.577,2.795
			c-1.743,0.112-3.069,1.621-2.958,3.363c0.112,1.743,1.613,3.073,3.363,2.957l43.577-2.795c1.743-0.112,3.069-1.621,2.957-3.363
			C434.536,508.166,433.139,506.876,431.486,506.876z M431.718,513.702h0.01H431.718z"/>
	</g>
	<g>
		<path style="fill:#282828;" d="M384.207,512.173c-0.158,0-0.314-0.075-0.411-0.214c-0.433-0.621-0.688-1.349-0.736-2.104
			c-0.147-2.293,1.599-4.277,3.891-4.425l43.577-2.795c2.323-0.142,4.278,1.599,4.425,3.891c0.033,0.522-0.072,0.882-0.194,1.299
			c-0.077,0.265-0.354,0.419-0.621,0.343c-0.265-0.078-0.418-0.353-0.34-0.618c0.113-0.385,0.18-0.613,0.158-0.96
			c-0.054-0.84-0.435-1.611-1.072-2.172c-0.638-0.56-1.456-0.839-2.291-0.785l-43.577,2.795c-1.743,0.112-3.069,1.621-2.958,3.363
			c0.037,0.573,0.229,1.125,0.558,1.597c0.158,0.227,0.102,0.538-0.125,0.696C384.405,512.144,384.305,512.173,384.207,512.173z"/>
	</g>
	<g>
		<path style="fill:#282828;" d="M436.418,540.588h-54.134c-2.244,0-3.266-2.647-3.266-5.106c0-2.459,1.022-5.106,3.266-5.106
			h54.134c2.244,0,3.266,2.647,3.266,5.106C439.684,537.941,438.662,540.588,436.418,540.588z M382.283,531.376
			c-1.488,0-2.266,2.065-2.266,4.106c0,2.04,0.778,4.106,2.266,4.106h54.134c1.488,0,2.266-2.066,2.266-4.106
			c0-2.041-0.778-4.106-2.266-4.106H382.283z"/>
	</g>
	<g>
		<path style="fill:#282828;" d="M423.981,535.274h-14.9c0,0-0.744,0-1.892,0h-12.468c-1.993,0-8.051,4.583-6.058,4.583h18.525
			c1.148,0,1.892,0,1.892,0h20.895C431.969,539.857,425.974,535.274,423.981,535.274z"/>
	</g>
	<g>
		<path style="fill:#282828;" d="M379.58,535.037c-0.251,0-0.467-0.188-0.496-0.444c-0.263-2.315,0.264-5.72,1.572-7.185
			c0.468-0.524,1.03-0.801,1.627-0.801h54.134c0.581,0,1.11,0.253,1.572,0.752c1.268,1.37,1.841,4.568,1.663,6.87
			c-0.021,0.275-0.253,0.479-0.537,0.46c-0.275-0.021-0.481-0.262-0.46-0.537c0.158-2.042-0.332-4.96-1.399-6.113
			c-0.27-0.291-0.544-0.432-0.838-0.432h-54.134c-0.313,0-0.6,0.153-0.881,0.467c-1.088,1.219-1.564,4.297-1.325,6.407
			c0.031,0.274-0.166,0.522-0.44,0.553C379.618,535.036,379.599,535.037,379.58,535.037z"/>
	</g>
	<g>
		<path style="fill:#282828;" d="M362.071,408.669c-2.913,0-5.283-2.37-5.283-5.283s2.37-5.283,5.283-5.283
			c2.913,0,5.283,2.37,5.283,5.283S364.984,408.669,362.071,408.669z M362.071,399.103c-2.362,0-4.283,1.921-4.283,4.283
			s1.921,4.283,4.283,4.283c2.362,0,4.283-1.921,4.283-4.283S364.433,399.103,362.071,399.103z"/>
	</g>
	<g>
		<path style="fill:#282828;" d="M363.307,401.061c0.192,0.257,0.309,0.573,0.309,0.919c0,0.853-0.691,1.545-1.545,1.545
			c-0.853,0-1.545-0.692-1.545-1.545c0-0.346,0.117-0.661,0.309-0.919c-0.835,0.445-1.409,1.313-1.409,2.325
			c0,1.461,1.184,2.645,2.645,2.645c1.461,0,2.645-1.184,2.645-2.645C364.716,402.375,364.141,401.506,363.307,401.061z"/>
	</g>
	<g>
		<path style="fill:#282828;" d="M387.788,51.727v-0.172c0-0.421-0.345-0.766-0.766-0.766c-0.31,0-0.577,0.189-0.697,0.456
			c-0.27-2.212-1.002-3.763-2.538-3.763c-2.048,0-4.75,2.761-4.75,6.167c0,3.406,2.702,6.167,4.75,6.167
			c1.535,0,2.267-1.552,2.538-3.763c0.12,0.267,0.386,0.456,0.697,0.456c0.421,0,0.766-0.344,0.766-0.766v-0.172h3.031v-3.844
			H387.788z M385.229,53.882c0,0-3.341,0-4.131,0c0,0.562,0.078,3.863,2.792,4.16c0,0-1.419,0.26-2.537-0.91
			c-1.118-1.17-1.685-3.826-0.71-5.831c0.975-2.006,2.199-2.355,2.944-2.355S385.449,50.302,385.229,53.882z M386.834,55.003
			c-0.29,0-0.525-0.606-0.525-1.354c0-0.748,0.235-1.354,0.525-1.354c0.29,0,0.525,0.606,0.525,1.354
			C387.359,54.397,387.124,55.003,386.834,55.003z M388.417,54.687c-0.266,0-0.482-0.465-0.482-1.039s0.216-1.039,0.482-1.039
			c0.266,0,0.482,0.465,0.482,1.039S388.684,54.687,388.417,54.687z"/>
	</g>
	<g>
		<path style="fill:#282828;" d="M389.205,69.31v-0.172c0-0.421-0.345-0.766-0.766-0.766c-0.31,0-0.577,0.189-0.697,0.456
			c-0.27-2.212-1.002-3.763-2.538-3.763c-2.048,0-4.75,2.761-4.75,6.167c0,3.406,2.702,6.167,4.75,6.167
			c1.535,0,2.267-1.551,2.538-3.763c0.12,0.267,0.386,0.456,0.697,0.456c0.421,0,0.766-0.345,0.766-0.766v-0.172h3.031V69.31
			H389.205z M386.645,71.466c0,0-3.341,0-4.131,0c0,0.562,0.078,3.863,2.791,4.16c0,0-1.419,0.26-2.536-0.91
			s-1.685-3.825-0.71-5.831c0.976-2.006,2.2-2.355,2.944-2.355C385.75,66.529,386.866,67.885,386.645,71.466z M388.251,72.586
			c-0.29,0-0.525-0.606-0.525-1.354c0-0.748,0.235-1.354,0.525-1.354c0.29,0,0.525,0.606,0.525,1.354
			C388.776,71.98,388.541,72.586,388.251,72.586z M389.834,72.271c-0.266,0-0.482-0.465-0.482-1.039
			c0-0.574,0.216-1.039,0.482-1.039s0.482,0.465,0.482,1.039C390.316,71.806,390.1,72.271,389.834,72.271z"/>
	</g>
	<g>
		<path style="fill:#282828;" d="M388.205,87.06v-0.172c0-0.421-0.345-0.766-0.766-0.766c-0.31,0-0.577,0.189-0.697,0.456
			c-0.27-2.212-1.002-3.763-2.538-3.763c-2.048,0-4.75,2.761-4.75,6.167c0,3.406,2.702,6.167,4.75,6.167
			c1.535,0,2.267-1.551,2.538-3.763c0.12,0.267,0.386,0.456,0.697,0.456c0.421,0,0.766-0.345,0.766-0.766v-0.172h3.031V87.06
			H388.205z M385.645,89.216c0,0-3.341,0-4.131,0c0,0.562,0.078,3.863,2.791,4.16c0,0-1.419,0.26-2.536-0.91
			s-1.685-3.825-0.71-5.831c0.976-2.006,2.2-2.355,2.944-2.355C384.75,84.279,385.866,85.635,385.645,89.216z M387.251,90.336
			c-0.29,0-0.525-0.606-0.525-1.354c0-0.748,0.235-1.354,0.525-1.354c0.29,0,0.525,0.606,0.525,1.354
			C387.776,89.73,387.541,90.336,387.251,90.336z M388.834,90.021c-0.266,0-0.482-0.465-0.482-1.039
			c0-0.574,0.216-1.039,0.482-1.039s0.482,0.465,0.482,1.039C389.316,89.556,389.1,90.021,388.834,90.021z"/>
	</g>
	<g>
		<path style="fill:#282828;" d="M431.205,51.727l-0.667,3.844h3.698v0.172c0,0.421,0.345,0.766,0.766,0.766
			c0.31,0,0.577-0.189,0.697-0.456c0.27,2.212,1.002,3.763,2.538,3.763c2.048,0,4.75-2.761,4.75-6.167
			c0-3.406-2.702-6.167-4.75-6.167c-1.535,0-2.267,1.551-2.538,3.763c-0.12-0.267-0.386-0.456-0.697-0.456
			c-0.421,0-0.766,0.344-0.766,0.766v0.172H431.205z M438.437,48.946c0.745,0,1.969,0.35,2.944,2.355
			c0.976,2.006,0.408,4.661-0.71,5.831c-1.117,1.17-2.537,0.91-2.537,0.91c2.714-0.297,2.791-3.597,2.791-4.16
			c-0.789,0-4.131,0-4.131,0C436.575,50.302,437.691,48.946,438.437,48.946z M434.665,53.649c0-0.748,0.235-1.354,0.525-1.354
			c0.29,0,0.525,0.606,0.525,1.354c0,0.748-0.235,1.354-0.525,1.354C434.9,55.003,434.665,54.397,434.665,53.649z M433.125,53.649
			c0-0.574,0.216-1.039,0.482-1.039c0.266,0,0.482,0.465,0.482,1.039s-0.216,1.039-0.482,1.039
			C433.341,54.687,433.125,54.222,433.125,53.649z"/>
	</g>
	<g>
		<path style="fill:#282828;" d="M430.038,69.31v3.844h3.031v0.172c0,0.421,0.345,0.766,0.766,0.766c0.31,0,0.577-0.189,0.697-0.456
			c0.27,2.212,1.002,3.763,2.538,3.763c2.048,0,4.75-2.761,4.75-6.167c0-3.406-2.702-6.167-4.75-6.167
			c-1.535,0-2.267,1.552-2.538,3.763c-0.12-0.267-0.386-0.456-0.697-0.456c-0.421,0-0.766,0.344-0.766,0.766v0.172H430.038z
			 M437.27,66.529c0.745,0,1.969,0.35,2.944,2.355c0.976,2.006,0.408,4.661-0.709,5.831c-1.118,1.17-2.537,0.91-2.537,0.91
			c2.714-0.297,2.792-3.597,2.792-4.16c-0.789,0-4.131,0-4.131,0C435.409,67.885,436.525,66.529,437.27,66.529z M433.499,71.232
			c0-0.748,0.235-1.354,0.525-1.354c0.29,0,0.525,0.606,0.525,1.354c0,0.748-0.235,1.354-0.525,1.354
			C433.734,72.586,433.499,71.98,433.499,71.232z M431.958,71.232c0-0.574,0.216-1.039,0.482-1.039c0.266,0,0.482,0.465,0.482,1.039
			c0,0.574-0.216,1.039-0.482,1.039C432.174,72.271,431.958,71.806,431.958,71.232z"/>
	</g>
	<g>
		<path style="fill:#282828;" d="M431.038,87.06v3.844h3.031v0.172c0,0.421,0.345,0.766,0.766,0.766c0.31,0,0.577-0.189,0.697-0.456
			c0.27,2.212,1.002,3.763,2.538,3.763c2.048,0,4.75-2.761,4.75-6.167c0-3.406-2.702-6.167-4.75-6.167
			c-1.535,0-2.267,1.552-2.538,3.763c-0.12-0.267-0.386-0.456-0.697-0.456c-0.421,0-0.766,0.345-0.766,0.766v0.172H431.038z
			 M438.27,84.279c0.745,0,1.969,0.35,2.944,2.355c0.976,2.006,0.408,4.661-0.709,5.831c-1.118,1.17-2.537,0.91-2.537,0.91
			c2.714-0.297,2.792-3.597,2.792-4.16c-0.789,0-4.131,0-4.131,0C436.409,85.635,437.525,84.279,438.27,84.279z M434.499,88.982
			c0-0.748,0.235-1.354,0.525-1.354c0.29,0,0.525,0.606,0.525,1.354c0,0.748-0.235,1.354-0.525,1.354
			C434.734,90.336,434.499,89.73,434.499,88.982z M432.958,88.982c0-0.574,0.216-1.039,0.482-1.039c0.266,0,0.482,0.465,0.482,1.039
			c0,0.574-0.216,1.039-0.482,1.039C433.174,90.021,432.958,89.556,432.958,88.982z"/>
	</g>
	<g>
		<path style="fill:#282828;" d="M403.455,116.274c-0.009,0-0.017,0-0.026,0c-0.276-0.014-0.488-0.249-0.474-0.525
			c0.042-0.813,1.099-19.968,8.622-25.462c0.185-0.136,0.439-0.128,0.616,0.021c0.303,0.254,7.429,6.448,7.595,25.295
			c0.003,0.276-0.219,0.502-0.496,0.504c-0.001,0-0.003,0-0.004,0c-0.274,0-0.497-0.221-0.5-0.496
			c-0.143-16.248-5.628-22.894-6.953-24.262c-6.841,5.559-7.872,24.258-7.881,24.45
			C403.941,116.066,403.719,116.274,403.455,116.274z"/>
	</g>
	<g>
		<path style="fill:#282828;" d="M310.872,538.274c-0.276,0-0.5-0.224-0.5-0.5c0-31.823,19.168-54.923,30.621-68.726
			c0.998-1.202,1.944-2.343,2.825-3.424c10.681-13.108,7.445-23.925,7.411-24.033c-0.083-0.263,0.063-0.544,0.326-0.627
			c0.262-0.083,0.543,0.062,0.628,0.325c0.146,0.46,3.455,11.414-7.589,24.967c-0.882,1.083-1.831,2.226-2.831,3.431
			c-11.366,13.698-30.39,36.625-30.39,68.087C311.372,538.05,311.148,538.274,310.872,538.274z"/>
	</g>
	<g>
		<path style="fill:#282828;" d="M508.788,541.357c-0.276,0-0.5-0.224-0.5-0.5c0-17.669-4.267-34.714-12.016-47.998
			c-5.095-8.736-11.053-15.431-16.311-21.338c-7.742-8.7-14.428-16.213-14.757-26.564c-0.009-0.276,0.208-0.507,0.483-0.516
			c0.29-0.015,0.507,0.207,0.516,0.483c0.318,9.989,6.579,17.024,14.505,25.931c5.288,5.942,11.282,12.678,16.428,21.5
			c7.836,13.435,12.151,30.659,12.151,48.502C509.288,541.133,509.065,541.357,508.788,541.357z"/>
	</g>
	<g>
		<g>
			<path style="fill:#282828;" d="M397.204,53.107c-2.596,0-4.708-1.96-4.708-4.37c0-1.732,0.994-3.19,2.658-3.902
				c0.253-0.111,0.547,0.009,0.656,0.263c0.109,0.254-0.009,0.548-0.263,0.656c-1.285,0.55-2.052,1.665-2.052,2.983
				c0,1.858,1.664,3.37,3.708,3.37c2.045,0,3.709-1.512,3.709-3.37c0-1.277-0.78-2.431-2.036-3.009
				c-0.251-0.115-0.361-0.413-0.245-0.663c0.115-0.251,0.411-0.361,0.663-0.245c1.615,0.744,2.618,2.245,2.618,3.917
				C401.913,51.146,399.801,53.107,397.204,53.107z"/>
		</g>
		<g>
			<path style="fill:#282828;" d="M397.204,46.791c-0.959,0-1.837-0.491-2.29-1.281c0,0,0,0,0,0
				c-0.201-0.351-0.308-0.748-0.308-1.147c0-1.339,1.165-2.429,2.598-2.429c1.433,0,2.598,1.09,2.598,2.429
				C399.802,45.701,398.637,46.791,397.204,46.791z M395.781,45.012c0.276,0.481,0.821,0.779,1.423,0.779
				c0.881,0,1.598-0.641,1.598-1.429c0-0.788-0.717-1.429-1.598-1.429c-0.881,0-1.598,0.641-1.598,1.429
				C395.607,44.59,395.666,44.809,395.781,45.012L395.781,45.012z"/>
		</g>
		<g>
			<path style="fill:#282828;" d="M397.194,50.857c-1.442,0-2.615-1.243-2.615-2.77v-3.505c0-0.276,0.224-0.5,0.5-0.5
				c0.276,0,0.5,0.224,0.5,0.5v3.505c0,0.976,0.725,1.77,1.615,1.77c0.89,0,1.615-0.794,1.615-1.77v-3.505
				c0-0.276,0.224-0.5,0.5-0.5s0.5,0.224,0.5,0.5v3.505C399.809,49.614,398.636,50.857,397.194,50.857z"/>
		</g>
	</g>
	<g>
		<g>
			<path style="fill:#282828;" d="M424.454,53.107c-2.596,0-4.708-1.96-4.708-4.37c0-1.732,0.994-3.19,2.658-3.902
				c0.253-0.111,0.547,0.009,0.656,0.263c0.109,0.254-0.009,0.548-0.263,0.656c-1.285,0.55-2.052,1.665-2.052,2.983
				c0,1.858,1.664,3.37,3.708,3.37c2.045,0,3.709-1.512,3.709-3.37c0-1.277-0.78-2.431-2.036-3.009
				c-0.251-0.115-0.361-0.413-0.245-0.663c0.116-0.251,0.413-0.361,0.663-0.245c1.615,0.744,2.618,2.245,2.618,3.917
				C429.163,51.146,427.051,53.107,424.454,53.107z"/>
		</g>
		<g>
			<path style="fill:#282828;" d="M424.454,46.791c-0.959,0-1.837-0.491-2.29-1.281c0,0,0,0,0,0
				c-0.201-0.351-0.308-0.748-0.308-1.147c0-1.339,1.165-2.429,2.598-2.429c1.433,0,2.598,1.09,2.598,2.429
				C427.052,45.701,425.887,46.791,424.454,46.791z M423.031,45.012c0.276,0.481,0.821,0.779,1.423,0.779
				c0.881,0,1.598-0.641,1.598-1.429c0-0.788-0.717-1.429-1.598-1.429c-0.881,0-1.598,0.641-1.598,1.429
				C422.857,44.59,422.916,44.809,423.031,45.012L423.031,45.012z"/>
		</g>
		<g>
			<path style="fill:#282828;" d="M424.444,50.857c-1.442,0-2.615-1.243-2.615-2.77v-3.505c0-0.276,0.224-0.5,0.5-0.5
				c0.276,0,0.5,0.224,0.5,0.5v3.505c0,0.976,0.725,1.77,1.615,1.77c0.89,0,1.615-0.794,1.615-1.77v-3.505
				c0-0.276,0.224-0.5,0.5-0.5s0.5,0.224,0.5,0.5v3.505C427.059,49.614,425.886,50.857,424.444,50.857z"/>
		</g>
	</g>
	<g>
		<g>
			<path style="fill:#282828;" d="M423.579,70.857c-2.596,0-4.708-1.96-4.708-4.37c0-1.731,0.994-3.19,2.658-3.902
				c0.253-0.11,0.547,0.008,0.656,0.263c0.109,0.254-0.009,0.548-0.263,0.656c-1.285,0.55-2.052,1.665-2.052,2.983
				c0,1.858,1.664,3.37,3.708,3.37c2.045,0,3.709-1.512,3.709-3.37c0-1.277-0.78-2.431-2.036-3.009
				c-0.251-0.115-0.361-0.413-0.245-0.663c0.115-0.251,0.412-0.363,0.663-0.245c1.615,0.744,2.618,2.245,2.618,3.917
				C428.288,68.896,426.176,70.857,423.579,70.857z"/>
		</g>
		<g>
			<path style="fill:#282828;" d="M423.579,64.541c-0.959,0-1.837-0.491-2.29-1.281c0,0,0,0,0,0
				c-0.201-0.351-0.308-0.748-0.308-1.147c0-1.339,1.165-2.429,2.598-2.429c1.433,0,2.598,1.09,2.598,2.429
				C426.177,63.451,425.012,64.541,423.579,64.541z M422.156,62.762c0.276,0.481,0.821,0.779,1.423,0.779
				c0.881,0,1.598-0.641,1.598-1.429c0-0.788-0.717-1.429-1.598-1.429c-0.881,0-1.598,0.641-1.598,1.429
				C421.982,62.34,422.041,62.559,422.156,62.762L422.156,62.762z"/>
		</g>
		<g>
			<path style="fill:#282828;" d="M423.569,68.607c-1.442,0-2.615-1.243-2.615-2.77v-3.505c0-0.276,0.224-0.5,0.5-0.5
				c0.276,0,0.5,0.224,0.5,0.5v3.505c0,0.976,0.725,1.77,1.615,1.77c0.89,0,1.615-0.794,1.615-1.77v-3.505
				c0-0.276,0.224-0.5,0.5-0.5s0.5,0.224,0.5,0.5v3.505C426.184,67.364,425.011,68.607,423.569,68.607z"/>
		</g>
	</g>
	<g>
		<g>
			<path style="fill:#282828;" d="M424.454,88.857c-2.596,0-4.708-1.96-4.708-4.37c0-1.731,0.994-3.19,2.658-3.902
				c0.253-0.11,0.547,0.008,0.656,0.263c0.109,0.254-0.009,0.548-0.263,0.656c-1.285,0.55-2.052,1.665-2.052,2.983
				c0,1.858,1.664,3.37,3.708,3.37c2.045,0,3.709-1.512,3.709-3.37c0-1.277-0.78-2.431-2.036-3.009
				c-0.251-0.115-0.361-0.413-0.245-0.663c0.116-0.25,0.413-0.362,0.663-0.245c1.615,0.744,2.618,2.245,2.618,3.917
				C429.163,86.896,427.051,88.857,424.454,88.857z"/>
		</g>
		<g>
			<path style="fill:#282828;" d="M424.454,82.541c-0.959,0-1.837-0.491-2.29-1.281c0,0,0,0,0,0
				c-0.201-0.351-0.308-0.748-0.308-1.147c0-1.339,1.165-2.429,2.598-2.429c1.433,0,2.598,1.09,2.598,2.429
				C427.052,81.451,425.887,82.541,424.454,82.541z M423.031,80.762c0.276,0.481,0.821,0.779,1.423,0.779
				c0.881,0,1.598-0.641,1.598-1.429c0-0.788-0.717-1.429-1.598-1.429c-0.881,0-1.598,0.641-1.598,1.429
				C422.857,80.34,422.916,80.559,423.031,80.762L423.031,80.762z"/>
		</g>
		<g>
			<path style="fill:#282828;" d="M424.444,86.607c-1.442,0-2.615-1.243-2.615-2.77v-3.505c0-0.276,0.224-0.5,0.5-0.5
				c0.276,0,0.5,0.224,0.5,0.5v3.505c0,0.976,0.725,1.77,1.615,1.77c0.89,0,1.615-0.794,1.615-1.77v-3.505
				c0-0.276,0.224-0.5,0.5-0.5s0.5,0.224,0.5,0.5v3.505C427.059,85.364,425.886,86.607,424.444,86.607z"/>
		</g>
	</g>
	<g>
		<g>
			<path style="fill:#282828;" d="M398.454,71.357c-2.596,0-4.708-1.96-4.708-4.37c0-1.731,0.994-3.19,2.658-3.902
				c0.253-0.11,0.548,0.008,0.656,0.263c0.109,0.254-0.009,0.548-0.263,0.656c-1.285,0.55-2.052,1.665-2.052,2.983
				c0,1.858,1.664,3.37,3.708,3.37c2.045,0,3.709-1.512,3.709-3.37c0-1.277-0.78-2.431-2.036-3.009
				c-0.251-0.115-0.361-0.413-0.245-0.663c0.116-0.251,0.413-0.362,0.663-0.245c1.615,0.744,2.618,2.245,2.618,3.917
				C403.163,69.396,401.051,71.357,398.454,71.357z"/>
		</g>
		<g>
			<path style="fill:#282828;" d="M398.454,65.041c-0.959,0-1.837-0.491-2.29-1.281c0,0,0,0,0,0
				c-0.201-0.351-0.308-0.748-0.308-1.147c0-1.339,1.165-2.429,2.598-2.429c1.433,0,2.598,1.09,2.598,2.429
				C401.052,63.951,399.887,65.041,398.454,65.041z M397.031,63.262c0.276,0.481,0.821,0.779,1.423,0.779
				c0.881,0,1.598-0.641,1.598-1.429c0-0.788-0.717-1.429-1.598-1.429c-0.881,0-1.598,0.641-1.598,1.429
				C396.857,62.84,396.916,63.059,397.031,63.262L397.031,63.262z"/>
		</g>
		<g>
			<path style="fill:#282828;" d="M398.444,69.107c-1.442,0-2.615-1.243-2.615-2.77v-3.505c0-0.276,0.224-0.5,0.5-0.5
				c0.276,0,0.5,0.224,0.5,0.5v3.505c0,0.976,0.725,1.77,1.615,1.77c0.89,0,1.615-0.794,1.615-1.77v-3.505
				c0-0.276,0.224-0.5,0.5-0.5s0.5,0.224,0.5,0.5v3.505C401.059,67.864,399.886,69.107,398.444,69.107z"/>
		</g>
	</g>
	<g>
		<g>
			<path style="fill:#282828;" d="M397.829,89.607c-2.596,0-4.708-1.96-4.708-4.37c0-1.731,0.994-3.19,2.658-3.902
				c0.253-0.111,0.547,0.009,0.656,0.263c0.109,0.254-0.009,0.548-0.263,0.656c-1.285,0.55-2.052,1.665-2.052,2.983
				c0,1.858,1.664,3.37,3.708,3.37c2.045,0,3.709-1.512,3.709-3.37c0-1.277-0.78-2.431-2.036-3.009
				c-0.251-0.115-0.361-0.413-0.245-0.663c0.115-0.25,0.412-0.361,0.663-0.245c1.615,0.744,2.618,2.245,2.618,3.917
				C402.538,87.646,400.426,89.607,397.829,89.607z"/>
		</g>
		<g>
			<path style="fill:#282828;" d="M397.829,83.291c-0.959,0-1.837-0.491-2.29-1.281c0,0,0,0,0,0
				c-0.201-0.351-0.308-0.748-0.308-1.147c0-1.339,1.165-2.429,2.598-2.429c1.433,0,2.598,1.09,2.598,2.429
				C400.427,82.201,399.262,83.291,397.829,83.291z M396.406,81.512c0.276,0.481,0.821,0.779,1.423,0.779
				c0.881,0,1.598-0.641,1.598-1.429c0-0.788-0.717-1.429-1.598-1.429c-0.881,0-1.598,0.641-1.598,1.429
				C396.232,81.09,396.291,81.309,396.406,81.512L396.406,81.512z"/>
		</g>
		<g>
			<path style="fill:#282828;" d="M397.819,87.357c-1.442,0-2.615-1.243-2.615-2.77v-3.505c0-0.276,0.224-0.5,0.5-0.5
				c0.276,0,0.5,0.224,0.5,0.5v3.505c0,0.976,0.725,1.77,1.615,1.77c0.89,0,1.615-0.794,1.615-1.77v-3.505
				c0-0.276,0.224-0.5,0.5-0.5s0.5,0.224,0.5,0.5v3.505C400.434,86.114,399.261,87.357,397.819,87.357z"/>
		</g>
	</g>
	<g>
		<path style="fill:#282828;" d="M400.372,116.774c-0.273,0-0.497-0.22-0.5-0.493l-0.365-27.636
			c-0.003-0.276,0.217-0.503,0.493-0.507c0.003,0,0.005,0,0.007,0c0.273,0,0.496,0.22,0.5,0.493l0.365,27.636
			c0.003,0.276-0.217,0.503-0.493,0.507C400.376,116.774,400.374,116.774,400.372,116.774z"/>
	</g>
	<g>
		<path style="fill:#282828;" d="M423.539,78.774c-0.024,0-0.049-0.001-0.074-0.005c-0.273-0.041-0.462-0.294-0.421-0.568
			l1.188-8.042c0.04-0.273,0.292-0.466,0.568-0.421c0.273,0.041,0.462,0.294,0.421,0.568l-1.188,8.042
			C423.996,78.595,423.783,78.774,423.539,78.774z"/>
	</g>
	<g>
		<path style="fill:#282828;" d="M423.955,60.607c-0.037,0-0.074-0.004-0.111-0.012c-0.269-0.061-0.438-0.329-0.378-0.598
			l1.709-7.563c0.061-0.269,0.328-0.439,0.598-0.378c0.269,0.061,0.438,0.329,0.377,0.598l-1.708,7.563
			C424.39,60.449,424.184,60.607,423.955,60.607z"/>
	</g>
	<g>
		<ellipse style="fill:#282828;" cx="392.96" cy="529.2" rx="1.391" ry="0.468"/>
	</g>
	<g>
		<ellipse style="fill:#282828;" cx="399.335" cy="529.2" rx="1.391" ry="0.468"/>
	</g>
	<g>
		<ellipse style="fill:#282828;" cx="405.398" cy="529.2" rx="1.391" ry="0.468"/>
	</g>
	<g>
		<ellipse style="fill:#282828;" cx="411.898" cy="529.2" rx="1.391" ry="0.468"/>
	</g>
	<g>
		<ellipse style="fill:#282828;" cx="418.148" cy="529.2" rx="1.391" ry="0.468"/>
	</g>
	<g>
		<ellipse style="fill:#282828;" cx="424.648" cy="529.2" rx="1.391" ry="0.468"/>
	</g>
	<g>
		<g>
			<g>
				<path style="fill:#282828;" d="M434.163,538.653c-1.748,0-3.17-1.422-3.17-3.171c0-1.748,1.422-3.17,3.17-3.17
					c1.748,0,3.17,1.422,3.17,3.17C437.334,537.23,435.911,538.653,434.163,538.653z M434.163,533.311
					c-1.197,0-2.17,0.974-2.17,2.17c0,1.197,0.974,2.171,2.17,2.171c1.197,0,2.17-0.974,2.17-2.171
					C436.334,534.285,435.36,533.311,434.163,533.311z"/>
			</g>
			<g>
				<path style="fill:#282828;" d="M436.007,537.878c-0.128,0-0.256-0.049-0.353-0.146l-3.521-3.521
					c-0.195-0.195-0.195-0.512,0-0.707c0.195-0.195,0.512-0.195,0.707,0l3.521,3.521c0.195,0.195,0.195,0.512,0,0.707
					C436.263,537.829,436.135,537.878,436.007,537.878z"/>
			</g>
		</g>
		<g>
			<g>
				<path style="fill:#282828;" d="M384.538,538.653c-1.748,0-3.17-1.422-3.17-3.171c0-1.748,1.422-3.17,3.17-3.17
					c1.748,0,3.17,1.422,3.17,3.17C387.709,537.23,386.286,538.653,384.538,538.653z M384.538,533.311
					c-1.197,0-2.17,0.974-2.17,2.17c0,1.197,0.974,2.171,2.17,2.171c1.197,0,2.17-0.974,2.17-2.171
					C386.709,534.285,385.735,533.311,384.538,533.311z"/>
			</g>
			<g>
				<path style="fill:#282828;" d="M386.382,537.878c-0.128,0-0.256-0.049-0.353-0.146l-3.521-3.521
					c-0.195-0.195-0.195-0.512,0-0.707c0.195-0.195,0.512-0.195,0.707,0l3.521,3.521c0.195,0.195,0.195,0.512,0,0.707
					C386.638,537.829,386.51,537.878,386.382,537.878z"/>
			</g>
		</g>
	</g>
	<g>
		<path style="fill:#282828;" d="M398.371,118.024c-0.252,0-0.468-0.189-0.497-0.445c-0.801-7.287-8.81-13.513-8.891-13.575
			c-0.112-0.086-0.183-0.217-0.194-0.358l-0.583-7.583c-0.021-0.275,0.185-0.516,0.46-0.537c0.281-0.026,0.516,0.184,0.537,0.46
			l0.567,7.364c1.249,1,8.31,6.945,9.099,14.12c0.03,0.274-0.168,0.521-0.442,0.552
			C398.408,118.023,398.389,118.024,398.371,118.024z"/>
	</g>
	<g>
		<path style="fill:#282828;" d="M423.914,118.357c-0.046,0-0.092-0.006-0.138-0.019c-0.266-0.076-0.419-0.353-0.344-0.618
			c2.748-9.619,7.62-13.904,8.632-14.712l0.727-6.539c0.031-0.275,0.283-0.466,0.552-0.442c0.274,0.031,0.472,0.278,0.442,0.552
			l-0.75,6.75c-0.016,0.14-0.089,0.266-0.203,0.349c-0.055,0.04-5.528,4.13-8.439,14.316
			C424.331,118.214,424.131,118.357,423.914,118.357z"/>
	</g>
	<g>
		<g>
			<path style="fill:#282828;" d="M461.372,511.252c-3.188,0-5.781-2.593-5.781-5.781s2.593-5.781,5.781-5.781
				c3.187,0,5.781,2.593,5.781,5.781S464.559,511.252,461.372,511.252z M461.372,500.69c-2.636,0-4.781,2.145-4.781,4.781
				c0,2.636,2.145,4.781,4.781,4.781s4.781-2.145,4.781-4.781C466.152,502.835,464.008,500.69,461.372,500.69z"/>
		</g>
		<g>
			<path style="fill:#282828;" d="M455.914,505.246c-0.152,0-0.302-0.069-0.4-0.2c-0.138-0.184-0.266-0.376-0.383-0.581
				c-0.771-1.336-0.977-2.894-0.577-4.385c0.4-1.492,1.356-2.738,2.694-3.51c1.337-0.773,2.896-0.978,4.386-0.578
				c1.492,0.399,2.738,1.356,3.51,2.693c0.579,1.003,0.842,2.142,0.761,3.293c-0.019,0.276-0.266,0.484-0.534,0.463
				c-0.275-0.019-0.483-0.258-0.463-0.534c0.067-0.951-0.15-1.893-0.63-2.723c-0.638-1.106-1.669-1.897-2.903-2.228
				c-1.234-0.331-2.522-0.162-3.627,0.478c-1.106,0.638-1.897,1.669-2.228,2.903c-0.331,1.233-0.161,2.522,0.478,3.628
				c0.097,0.169,0.203,0.329,0.316,0.48c0.166,0.221,0.121,0.534-0.1,0.7C456.124,505.213,456.018,505.246,455.914,505.246z"/>
		</g>
		<g>
			<path style="fill:#282828;" d="M461.385,508.82c-2.422,0-3.187-1.949-3.219-2.032c-0.098-0.258,0.033-0.547,0.291-0.645
				c0.255-0.095,0.545,0.031,0.643,0.288c0.022,0.057,0.568,1.389,2.285,1.389c1.789,0,2.285-1.369,2.305-1.427
				c0.09-0.259,0.372-0.401,0.633-0.312c0.26,0.088,0.401,0.368,0.315,0.628C464.397,507.439,463.407,508.82,461.385,508.82z"/>
		</g>
	</g>
	<g>
		<g>
			<path style="fill:#282828;" d="M474.372,533.627c-3.188,0-5.781-2.593-5.781-5.781s2.593-5.781,5.781-5.781
				c3.187,0,5.781,2.593,5.781,5.781S477.559,533.627,474.372,533.627z M474.372,523.065c-2.636,0-4.781,2.144-4.781,4.781
				c0,2.636,2.145,4.781,4.781,4.781c2.636,0,4.781-2.144,4.781-4.781C479.152,525.21,477.008,523.065,474.372,523.065z"/>
		</g>
		<g>
			<path style="fill:#282828;" d="M468.914,527.62c-0.152,0-0.302-0.069-0.4-0.2c-0.138-0.184-0.266-0.376-0.383-0.581
				c-0.771-1.336-0.977-2.894-0.577-4.385c0.4-1.492,1.356-2.738,2.694-3.51c1.337-0.772,2.894-0.977,4.386-0.578
				c1.492,0.399,2.738,1.356,3.51,2.693c0.579,1.003,0.842,2.142,0.761,3.293c-0.02,0.275-0.268,0.49-0.534,0.463
				c-0.275-0.019-0.483-0.258-0.463-0.534c0.067-0.951-0.15-1.893-0.63-2.723c-0.638-1.106-1.67-1.897-2.903-2.227
				c-1.234-0.332-2.522-0.162-3.627,0.478c-1.106,0.638-1.897,1.669-2.228,2.903c-0.331,1.233-0.161,2.521,0.478,3.628
				c0.097,0.169,0.203,0.329,0.316,0.48c0.166,0.221,0.121,0.534-0.1,0.7C469.124,527.588,469.018,527.62,468.914,527.62z"/>
		</g>
		<g>
			<path style="fill:#282828;" d="M474.385,531.195c-2.422,0-3.187-1.949-3.219-2.032c-0.098-0.258,0.033-0.547,0.291-0.645
				c0.257-0.096,0.545,0.031,0.643,0.288c0.022,0.057,0.568,1.389,2.285,1.389c1.789,0,2.285-1.369,2.305-1.427
				c0.09-0.26,0.372-0.401,0.633-0.311c0.26,0.088,0.401,0.368,0.315,0.628C477.397,529.814,476.407,531.195,474.385,531.195z"/>
		</g>
	</g>
	<g>
		<g>
			<path style="fill:#282828;" d="M476.122,561.127c-3.188,0-5.781-2.593-5.781-5.781s2.593-5.781,5.781-5.781
				c3.188,0,5.781,2.593,5.781,5.781S479.309,561.127,476.122,561.127z M476.122,550.565c-2.636,0-4.781,2.144-4.781,4.781
				c0,2.636,2.145,4.781,4.781,4.781s4.781-2.144,4.781-4.781C480.902,552.71,478.758,550.565,476.122,550.565z"/>
		</g>
		<g>
			<path style="fill:#282828;" d="M470.664,555.12c-0.152,0-0.302-0.069-0.4-0.2c-0.138-0.184-0.266-0.376-0.383-0.581
				c-0.771-1.336-0.977-2.894-0.577-4.385c0.4-1.492,1.356-2.738,2.694-3.51c1.337-0.772,2.895-0.977,4.386-0.578
				c1.492,0.399,2.738,1.356,3.51,2.693c0.579,1.003,0.842,2.142,0.761,3.293c-0.02,0.276-0.261,0.482-0.534,0.463
				c-0.275-0.019-0.483-0.258-0.463-0.534c0.067-0.951-0.15-1.893-0.63-2.723c-0.638-1.106-1.67-1.897-2.903-2.227
				c-1.234-0.331-2.522-0.161-3.627,0.478c-1.106,0.638-1.897,1.669-2.228,2.903c-0.331,1.233-0.161,2.521,0.478,3.628
				c0.097,0.169,0.203,0.329,0.316,0.48c0.166,0.221,0.121,0.534-0.1,0.7C470.874,555.088,470.768,555.12,470.664,555.12z"/>
		</g>
		<g>
			<path style="fill:#282828;" d="M476.135,558.695c-2.422,0-3.187-1.949-3.219-2.032c-0.098-0.258,0.033-0.547,0.291-0.645
				c0.256-0.095,0.545,0.031,0.643,0.288c0.022,0.057,0.568,1.389,2.285,1.389c1.789,0,2.285-1.369,2.305-1.427
				c0.09-0.259,0.373-0.402,0.633-0.311c0.26,0.088,0.401,0.368,0.315,0.628C479.147,557.314,478.157,558.695,476.135,558.695z"/>
		</g>
	</g>
	<g>
		<g>
			<path style="fill:#282828;" d="M386.297,419.513c0,0.781-0.633,1.415-1.415,1.415c-0.781,0-1.415-0.633-1.415-1.415
				c0-0.781,0.633-1.415,1.415-1.415C385.663,418.099,386.297,418.732,386.297,419.513z"/>
		</g>
		<g>
			<path style="fill:#282828;" d="M386.297,441.701c0,0.781-0.633,1.415-1.415,1.415c-0.781,0-1.415-0.633-1.415-1.415
				c0-0.781,0.633-1.415,1.415-1.415C385.663,440.286,386.297,440.919,386.297,441.701z"/>
		</g>
	</g>
	<g>
		<path style="fill:#282828;" d="M435.234,419.513c0,0.781-0.633,1.415-1.415,1.415c-0.781,0-1.415-0.633-1.415-1.415
			c0-0.781,0.633-1.415,1.415-1.415C434.601,418.099,435.234,418.732,435.234,419.513z"/>
	</g>
	<g>
		<path style="fill:#282828;" d="M435.234,441.701c0,0.781-0.633,1.415-1.415,1.415c-0.781,0-1.415-0.633-1.415-1.415
			c0-0.781,0.633-1.415,1.415-1.415C434.601,440.286,435.234,440.919,435.234,441.701z"/>
	</g>
	<g>
		<g>
			<path style="fill:#282828;" d="M386.297,471.013c0,0.781-0.633,1.415-1.415,1.415c-0.781,0-1.415-0.633-1.415-1.415
				c0-0.781,0.633-1.415,1.415-1.415C385.663,469.599,386.297,470.232,386.297,471.013z"/>
		</g>
		<g>
			<path style="fill:#282828;" d="M386.297,493.201c0,0.781-0.633,1.415-1.415,1.415c-0.781,0-1.415-0.633-1.415-1.415
				c0-0.781,0.633-1.415,1.415-1.415C385.663,491.786,386.297,492.419,386.297,493.201z"/>
		</g>
	</g>
	<g>
		<path style="fill:#282828;" d="M435.234,471.013c0,0.781-0.633,1.415-1.415,1.415c-0.781,0-1.415-0.633-1.415-1.415
			c0-0.781,0.633-1.415,1.415-1.415C434.601,469.599,435.234,470.232,435.234,471.013z"/>
	</g>
	<g>
		<path style="fill:#282828;" d="M435.234,493.201c0,0.781-0.633,1.415-1.415,1.415c-0.781,0-1.415-0.633-1.415-1.415
			c0-0.781,0.633-1.415,1.415-1.415C434.601,491.786,435.234,492.419,435.234,493.201z"/>
	</g>
	<g>
		<circle style="fill:#282828;" cx="431.538" cy="509.94" r="1.415"/>
	</g>
	<g>
		<path style="fill:#282828;" d="M389.484,512.867c0,0.781-0.633,1.415-1.415,1.415c-0.781,0-1.415-0.633-1.415-1.415
			c0-0.781,0.633-1.415,1.415-1.415C388.851,511.453,389.484,512.086,389.484,512.867z"/>
	</g>
	<g>
		<path style="fill:#282828;" d="M413.978,130.357c0,1.347-1.092,2.44-2.44,2.44c-1.347,0-2.44-1.092-2.44-2.44
			c0-1.348,1.092-2.44,2.44-2.44C412.886,127.917,413.978,129.01,413.978,130.357z"/>
	</g>
	<g>
		<path style="fill:#282828;" d="M413.895,172.607c0,1.347-1.092,2.44-2.44,2.44c-1.348,0-2.44-1.092-2.44-2.44
			c0-1.348,1.092-2.44,2.44-2.44C412.802,170.167,413.895,171.26,413.895,172.607z"/>
	</g>
	<g>
		<path style="fill:#282828;" d="M413.728,210.357c0,1.347-1.092,2.44-2.44,2.44c-1.347,0-2.44-1.092-2.44-2.44
			c0-1.348,1.092-2.44,2.44-2.44C412.636,207.917,413.728,209.01,413.728,210.357z"/>
	</g>
	<g>
		<path style="fill:#282828;" d="M413.145,242.774c0,1.348-1.092,2.44-2.44,2.44c-1.348,0-2.44-1.092-2.44-2.44
			c0-1.347,1.092-2.44,2.44-2.44C412.052,240.334,413.145,241.426,413.145,242.774z"/>
	</g>
	<g>
		<path style="fill:#282828;" d="M413.145,272.107c0,1.347-1.092,2.44-2.44,2.44c-1.348,0-2.44-1.092-2.44-2.44
			c0-1.348,1.092-2.44,2.44-2.44C412.052,269.667,413.145,270.759,413.145,272.107z"/>
	</g>
	<g>
		<path style="fill:#282828;" d="M412.645,309.524c0,1.348-1.092,2.44-2.44,2.44c-1.348,0-2.44-1.092-2.44-2.44
			c0-1.347,1.092-2.44,2.44-2.44C411.552,307.084,412.645,308.176,412.645,309.524z"/>
	</g>
	<g>
		<path style="fill:#282828;" d="M412.561,341.19c0,1.348-1.092,2.44-2.44,2.44c-1.348,0-2.44-1.092-2.44-2.44s1.092-2.44,2.44-2.44
			C411.469,338.75,412.561,339.843,412.561,341.19z"/>
	</g>
	<g>
		<path style="fill:#282828;" d="M412.311,359.44c0,1.348-1.092,2.44-2.44,2.44c-1.348,0-2.44-1.092-2.44-2.44s1.092-2.44,2.44-2.44
			C411.219,357,412.311,358.093,412.311,359.44z"/>
	</g>
	<g>
		<path style="fill:#282828;" d="M412.145,375.524c0,1.348-1.092,2.44-2.44,2.44c-1.348,0-2.44-1.092-2.44-2.44
			c0-1.347,1.092-2.44,2.44-2.44C411.052,373.084,412.145,374.176,412.145,375.524z"/>
	</g>
	<g>
		<path style="fill:#282828;" d="M412.145,390.024c0,1.347-1.092,2.44-2.44,2.44c-1.348,0-2.44-1.092-2.44-2.44
			c0-1.347,1.092-2.44,2.44-2.44C411.052,387.584,412.145,388.676,412.145,390.024z"/>
	</g>
</g>
<g>
	<g>
		<path style="fill:#282828;" d="M137.462,70.477v-0.172c0-0.421-0.344-0.766-0.766-0.766c-0.31,0-0.577,0.189-0.697,0.456
			c-0.27-2.212-1.002-3.763-2.538-3.763c-2.048,0-4.75,2.761-4.75,6.167c0,3.406,2.702,6.167,4.75,6.167
			c1.535,0,2.267-1.552,2.538-3.763c0.12,0.267,0.386,0.456,0.697,0.456c0.421,0,0.766-0.345,0.766-0.766v-0.172h1.833v-3.844
			H137.462z M134.903,72.632c0,0-3.341,0-4.131,0c0,0.562,0.078,3.863,2.792,4.16c0,0-1.419,0.26-2.537-0.91
			c-1.117-1.17-1.685-3.826-0.709-5.831c0.976-2.006,2.199-2.355,2.944-2.355C134.007,67.696,135.123,69.052,134.903,72.632z
			 M136.508,73.753c-0.29,0-0.525-0.606-0.525-1.354c0-0.748,0.235-1.354,0.525-1.354c0.29,0,0.525,0.606,0.525,1.354
			C137.033,73.147,136.798,73.753,136.508,73.753z M138.092,73.437c-0.266,0-0.482-0.465-0.482-1.039s0.216-1.039,0.482-1.039
			c0.266,0,0.482,0.465,0.482,1.039S138.358,73.437,138.092,73.437z"/>
	</g>
	<g>
		<path style="fill:#282828;" d="M138.546,92.602V92.43c0-0.421-0.345-0.766-0.766-0.766c-0.311,0-0.577,0.189-0.697,0.456
			c-0.27-2.212-1.002-3.763-2.538-3.763c-2.048,0-4.75,2.761-4.75,6.167c0,3.406,2.702,6.167,4.75,6.167
			c1.535,0,2.267-1.552,2.538-3.763c0.12,0.267,0.386,0.456,0.697,0.456c0.421,0,0.766-0.345,0.766-0.766v-0.172h1.75v-3.844
			H138.546z M135.986,94.757c0,0-3.341,0-4.131,0c0,0.562,0.077,3.863,2.791,4.16c0,0-1.419,0.26-2.536-0.91
			c-1.117-1.17-1.685-3.826-0.71-5.831c0.976-2.006,2.199-2.355,2.945-2.355C135.09,89.821,136.206,91.177,135.986,94.757z
			 M137.592,95.878c-0.29,0-0.525-0.606-0.525-1.354c0-0.748,0.235-1.354,0.525-1.354c0.29,0,0.525,0.606,0.525,1.354
			C138.117,95.272,137.882,95.878,137.592,95.878z M139.175,95.562c-0.266,0-0.482-0.465-0.482-1.039s0.216-1.039,0.482-1.039
			c0.266,0,0.482,0.465,0.482,1.039S139.441,95.562,139.175,95.562z"/>
	</g>
	<g>
		<path style="fill:#282828;" d="M138.379,115.268v-0.172c0-0.421-0.344-0.766-0.766-0.766c-0.31,0-0.577,0.189-0.697,0.456
			c-0.27-2.212-1.002-3.763-2.538-3.763c-2.048,0-4.75,2.761-4.75,6.167c0,3.406,2.702,6.167,4.75,6.167
			c1.535,0,2.267-1.552,2.538-3.763c0.12,0.267,0.386,0.456,0.697,0.456c0.421,0,0.766-0.344,0.766-0.766v-0.172h2.25v-3.844
			H138.379z M135.82,117.424c0,0-3.341,0-4.131,0c0,0.562,0.077,3.862,2.791,4.16c0,0-1.419,0.26-2.536-0.91
			c-1.117-1.17-1.685-3.825-0.709-5.831c0.975-2.005,2.199-2.355,2.944-2.355C134.924,112.487,136.04,113.843,135.82,117.424z
			 M137.425,118.544c-0.29,0-0.525-0.606-0.525-1.354s0.235-1.354,0.525-1.354c0.29,0,0.525,0.606,0.525,1.354
			S137.715,118.544,137.425,118.544z M139.008,118.229c-0.266,0-0.482-0.465-0.482-1.039s0.216-1.039,0.482-1.039
			s0.482,0.465,0.482,1.039S139.275,118.229,139.008,118.229z"/>
	</g>
	<g>
		<path style="fill:#282828;" d="M179.337,71.477v3.844h1.833v0.172c0,0.421,0.344,0.766,0.766,0.766
			c0.31,0,0.577-0.189,0.697-0.456c0.27,2.212,1.002,3.763,2.538,3.763c2.048,0,4.75-2.761,4.75-6.167
			c0-3.406-2.702-6.167-4.75-6.167c-1.535,0-2.267,1.551-2.538,3.763c-0.12-0.267-0.386-0.456-0.697-0.456
			c-0.421,0-0.766,0.344-0.766,0.766v0.172H179.337z M185.371,68.696c0.745,0,1.969,0.35,2.945,2.355
			c0.976,2.006,0.408,4.661-0.71,5.831c-1.118,1.17-2.537,0.91-2.537,0.91c2.714-0.297,2.792-3.597,2.792-4.16
			c-0.79,0-4.131,0-4.131,0C183.51,70.052,184.626,68.696,185.371,68.696z M181.6,73.399c0-0.748,0.235-1.354,0.525-1.354
			c0.29,0,0.525,0.606,0.525,1.354c0,0.748-0.235,1.354-0.525,1.354C181.835,74.753,181.6,74.147,181.6,73.399z M180.06,73.399
			c0-0.574,0.216-1.039,0.482-1.039c0.266,0,0.482,0.465,0.482,1.039s-0.216,1.039-0.482,1.039
			C180.275,74.437,180.06,73.972,180.06,73.399z"/>
	</g>
	<g>
		<path style="fill:#282828;" d="M178.587,93.602v3.844h1.75v0.172c0,0.421,0.345,0.766,0.766,0.766c0.31,0,0.577-0.189,0.697-0.456
			c0.27,2.212,1.002,3.763,2.538,3.763c2.048,0,4.75-2.761,4.75-6.167c0-3.406-2.702-6.167-4.75-6.167
			c-1.535,0-2.267,1.551-2.538,3.763c-0.12-0.267-0.386-0.456-0.697-0.456c-0.421,0-0.766,0.344-0.766,0.766v0.172H178.587z
			 M184.538,90.821c0.745,0,1.969,0.35,2.945,2.355c0.976,2.006,0.408,4.661-0.71,5.831c-1.118,1.17-2.537,0.91-2.537,0.91
			c2.714-0.297,2.792-3.597,2.792-4.16c-0.79,0-4.131,0-4.131,0C182.677,92.177,183.793,90.821,184.538,90.821z M180.766,95.524
			c0-0.748,0.235-1.354,0.525-1.354c0.29,0,0.525,0.606,0.525,1.354c0,0.748-0.235,1.354-0.525,1.354
			C181.002,96.878,180.766,96.272,180.766,95.524z M179.226,95.524c0-0.574,0.216-1.039,0.482-1.039
			c0.266,0,0.482,0.465,0.482,1.039s-0.216,1.039-0.482,1.039C179.442,96.562,179.226,96.097,179.226,95.524z"/>
	</g>
	<g>
		<path style="fill:#282828;" d="M178.087,116.268v3.844h2.25v0.172c0,0.421,0.345,0.766,0.766,0.766
			c0.31,0,0.577-0.189,0.697-0.456c0.27,2.212,1.002,3.763,2.538,3.763c2.048,0,4.75-2.761,4.75-6.167
			c0-3.406-2.702-6.167-4.75-6.167c-1.535,0-2.267,1.552-2.538,3.763c-0.12-0.267-0.386-0.456-0.697-0.456
			c-0.421,0-0.766,0.344-0.766,0.766v0.172H178.087z M184.538,113.487c0.745,0,1.969,0.35,2.945,2.355
			c0.976,2.006,0.408,4.661-0.71,5.831c-1.118,1.17-2.537,0.91-2.537,0.91c2.714-0.297,2.792-3.597,2.792-4.16
			c-0.79,0-4.131,0-4.131,0C182.677,114.843,183.793,113.487,184.538,113.487z M180.766,118.19c0-0.748,0.235-1.354,0.525-1.354
			c0.29,0,0.525,0.606,0.525,1.354s-0.235,1.354-0.525,1.354C181.002,119.544,180.766,118.938,180.766,118.19z M179.226,118.19
			c0-0.574,0.216-1.039,0.482-1.039c0.266,0,0.482,0.465,0.482,1.039s-0.216,1.039-0.482,1.039
			C179.442,119.229,179.226,118.764,179.226,118.19z"/>
	</g>
	<g>
		<g>
			<path style="fill:#282828;" d="M148.056,72.544c-2.533,0-4.594-1.845-4.594-4.114c0-1.633,0.972-3.007,2.601-3.676
				c0.254-0.103,0.547,0.017,0.652,0.272c0.105,0.255-0.017,0.547-0.272,0.652c-1.24,0.51-1.98,1.538-1.98,2.751
				c0,1.717,1.612,3.114,3.594,3.114c1.982,0,3.594-1.397,3.594-3.114c0-1.176-0.753-2.24-1.965-2.775
				c-0.252-0.112-0.367-0.407-0.255-0.66c0.112-0.252,0.406-0.365,0.66-0.255c1.58,0.699,2.561,2.113,2.561,3.69
				C152.65,70.699,150.589,72.544,148.056,72.544z"/>
		</g>
		<g>
			<path style="fill:#282828;" d="M148.056,66.647c-0.934,0-1.791-0.462-2.235-1.205l0,0c-0.2-0.334-0.306-0.713-0.306-1.096
				c0-1.269,1.14-2.301,2.541-2.301c1.401,0,2.541,1.032,2.541,2.301C150.597,65.615,149.457,66.647,148.056,66.647z
				 M148.056,63.044c-0.85,0-1.541,0.584-1.541,1.301c0,0.205,0.055,0.401,0.164,0.582v0.001c0.265,0.443,0.793,0.718,1.377,0.718
				c0.85,0,1.541-0.584,1.541-1.301C149.597,63.628,148.906,63.044,148.056,63.044z"/>
		</g>
		<g>
			<path style="fill:#282828;" d="M148.046,70.444c-1.41,0-2.557-1.176-2.557-2.621v-3.272c0-0.276,0.224-0.5,0.5-0.5
				c0.276,0,0.5,0.224,0.5,0.5v3.272c0,0.894,0.699,1.621,1.557,1.621s1.557-0.727,1.557-1.621v-3.272c0-0.276,0.224-0.5,0.5-0.5
				s0.5,0.224,0.5,0.5v3.272C150.603,69.268,149.456,70.444,148.046,70.444z"/>
		</g>
	</g>
	<g>
		<g>
			<path style="fill:#282828;" d="M148.306,95.294c-2.533,0-4.594-1.845-4.594-4.114c0-1.633,0.972-3.007,2.601-3.676
				c0.255-0.105,0.547,0.017,0.652,0.272c0.105,0.255-0.017,0.547-0.272,0.652c-1.24,0.51-1.98,1.538-1.98,2.751
				c0,1.717,1.612,3.114,3.594,3.114c1.982,0,3.594-1.397,3.594-3.114c0-1.176-0.753-2.24-1.965-2.775
				c-0.252-0.112-0.367-0.407-0.255-0.66c0.113-0.252,0.406-0.364,0.66-0.255c1.58,0.699,2.561,2.113,2.561,3.69
				C152.9,93.449,150.839,95.294,148.306,95.294z"/>
		</g>
		<g>
			<path style="fill:#282828;" d="M148.306,89.397c-0.934,0-1.791-0.462-2.235-1.205l0,0c-0.2-0.334-0.306-0.713-0.306-1.096
				c0-1.269,1.14-2.301,2.541-2.301c1.401,0,2.541,1.032,2.541,2.301C150.847,88.365,149.707,89.397,148.306,89.397z
				 M148.306,85.794c-0.85,0-1.541,0.584-1.541,1.301c0,0.205,0.055,0.401,0.164,0.582v0c0.265,0.443,0.793,0.718,1.377,0.718
				c0.85,0,1.541-0.584,1.541-1.301C149.847,86.378,149.156,85.794,148.306,85.794z"/>
		</g>
		<g>
			<path style="fill:#282828;" d="M148.296,93.194c-1.41,0-2.557-1.176-2.557-2.621v-3.272c0-0.276,0.224-0.5,0.5-0.5
				c0.276,0,0.5,0.224,0.5,0.5v3.272c0,0.894,0.699,1.621,1.557,1.621s1.557-0.727,1.557-1.621v-3.272c0-0.276,0.224-0.5,0.5-0.5
				s0.5,0.224,0.5,0.5v3.272C150.853,92.018,149.706,93.194,148.296,93.194z"/>
		</g>
	</g>
	<g>
		<g>
			<path style="fill:#282828;" d="M148.306,118.794c-2.533,0-4.594-1.845-4.594-4.114c0-1.633,0.972-3.007,2.601-3.676
				c0.255-0.104,0.547,0.017,0.652,0.272c0.105,0.255-0.017,0.547-0.272,0.652c-1.24,0.51-1.98,1.538-1.98,2.751
				c0,1.717,1.612,3.114,3.594,3.114c1.982,0,3.594-1.397,3.594-3.114c0-1.176-0.753-2.24-1.965-2.775
				c-0.252-0.112-0.367-0.407-0.255-0.66c0.113-0.253,0.406-0.366,0.66-0.255c1.58,0.699,2.561,2.113,2.561,3.69
				C152.9,116.949,150.839,118.794,148.306,118.794z"/>
		</g>
		<g>
			<path style="fill:#282828;" d="M148.306,112.897c-0.934,0-1.791-0.462-2.235-1.205l0,0c-0.2-0.334-0.306-0.713-0.306-1.096
				c0-1.269,1.14-2.301,2.541-2.301c1.401,0,2.541,1.032,2.541,2.301C150.847,111.865,149.707,112.897,148.306,112.897z
				 M148.306,109.294c-0.85,0-1.541,0.584-1.541,1.301c0,0.205,0.055,0.401,0.164,0.583v0c0.265,0.443,0.793,0.718,1.377,0.718
				c0.85,0,1.541-0.584,1.541-1.301S149.156,109.294,148.306,109.294z"/>
		</g>
		<g>
			<path style="fill:#282828;" d="M148.296,116.694c-1.41,0-2.557-1.176-2.557-2.621v-3.272c0-0.276,0.224-0.5,0.5-0.5
				c0.276,0,0.5,0.224,0.5,0.5v3.272c0,0.894,0.699,1.621,1.557,1.621s1.557-0.727,1.557-1.621v-3.272c0-0.276,0.224-0.5,0.5-0.5
				s0.5,0.224,0.5,0.5v3.272C150.853,115.518,149.706,116.694,148.296,116.694z"/>
		</g>
	</g>
	<g>
		<g>
			<path style="fill:#282828;" d="M171.212,72.544c-2.533,0-4.594-1.845-4.594-4.114c0-1.578,0.981-2.992,2.561-3.69
				c0.255-0.11,0.548,0.003,0.66,0.255c0.111,0.252-0.003,0.548-0.255,0.66c-1.212,0.536-1.966,1.599-1.966,2.775
				c0,1.717,1.612,3.114,3.594,3.114c1.982,0,3.594-1.397,3.594-3.114c0-1.213-0.741-2.242-1.981-2.751
				c-0.255-0.105-0.378-0.397-0.273-0.652c0.105-0.256,0.399-0.377,0.652-0.272c1.629,0.669,2.601,2.043,2.601,3.676
				C175.806,70.699,173.745,72.544,171.212,72.544z"/>
		</g>
		<g>
			<path style="fill:#282828;" d="M171.212,66.647c-1.401,0-2.541-1.032-2.541-2.301c0-1.269,1.14-2.301,2.541-2.301
				c1.401,0,2.541,1.032,2.541,2.301c0,0.383-0.106,0.762-0.306,1.096l0,0C173.003,66.185,172.146,66.647,171.212,66.647z
				 M171.212,63.044c-0.85,0-1.541,0.584-1.541,1.301c0,0.717,0.691,1.301,1.541,1.301c0.584,0,1.112-0.275,1.377-0.718v-0.001
				c0.109-0.182,0.164-0.377,0.164-0.582C172.753,63.628,172.061,63.044,171.212,63.044z"/>
		</g>
		<g>
			<path style="fill:#282828;" d="M171.222,70.444c-1.41,0-2.557-1.176-2.557-2.621v-3.272c0-0.276,0.224-0.5,0.5-0.5
				c0.276,0,0.5,0.224,0.5,0.5v3.272c0,0.894,0.699,1.621,1.557,1.621s1.557-0.727,1.557-1.621v-3.272c0-0.276,0.224-0.5,0.5-0.5
				s0.5,0.224,0.5,0.5v3.272C173.779,69.268,172.632,70.444,171.222,70.444z"/>
		</g>
	</g>
	<g>
		<g>
			<path style="fill:#282828;" d="M170.962,95.294c-2.533,0-4.594-1.845-4.594-4.114c0-1.578,0.981-2.992,2.561-3.69
				c0.254-0.109,0.548,0.003,0.66,0.255c0.111,0.252-0.003,0.548-0.255,0.66c-1.212,0.536-1.966,1.599-1.966,2.775
				c0,1.717,1.612,3.114,3.594,3.114c1.982,0,3.594-1.397,3.594-3.114c0-1.213-0.741-2.242-1.981-2.751
				c-0.255-0.105-0.378-0.397-0.273-0.652c0.105-0.255,0.398-0.379,0.652-0.272c1.629,0.669,2.601,2.043,2.601,3.676
				C175.556,93.449,173.495,95.294,170.962,95.294z"/>
		</g>
		<g>
			<path style="fill:#282828;" d="M170.962,89.397c-1.401,0-2.541-1.032-2.541-2.301c0-1.269,1.14-2.301,2.541-2.301
				c1.401,0,2.541,1.032,2.541,2.301c0,0.383-0.106,0.762-0.306,1.096l0,0C172.753,88.935,171.896,89.397,170.962,89.397z
				 M170.962,85.794c-0.85,0-1.541,0.584-1.541,1.301c0,0.717,0.691,1.301,1.541,1.301c0.584,0,1.112-0.275,1.377-0.718v0
				c0.109-0.182,0.164-0.377,0.164-0.582C172.503,86.378,171.811,85.794,170.962,85.794z"/>
		</g>
		<g>
			<path style="fill:#282828;" d="M170.972,93.194c-1.41,0-2.557-1.176-2.557-2.621v-3.272c0-0.276,0.224-0.5,0.5-0.5
				c0.276,0,0.5,0.224,0.5,0.5v3.272c0,0.894,0.699,1.621,1.557,1.621s1.557-0.727,1.557-1.621v-3.272c0-0.276,0.224-0.5,0.5-0.5
				s0.5,0.224,0.5,0.5v3.272C173.529,92.018,172.382,93.194,170.972,93.194z"/>
		</g>
	</g>
	<g>
		<g>
			<path style="fill:#282828;" d="M170.962,118.794c-2.533,0-4.594-1.845-4.594-4.114c0-1.578,0.981-2.992,2.561-3.69
				c0.254-0.11,0.548,0.003,0.66,0.255c0.111,0.252-0.003,0.548-0.255,0.66c-1.212,0.536-1.966,1.599-1.966,2.775
				c0,1.717,1.612,3.114,3.594,3.114c1.982,0,3.594-1.397,3.594-3.114c0-1.213-0.741-2.242-1.981-2.751
				c-0.255-0.105-0.378-0.397-0.273-0.652c0.105-0.256,0.398-0.378,0.652-0.272c1.629,0.669,2.601,2.043,2.601,3.676
				C175.556,116.949,173.495,118.794,170.962,118.794z"/>
		</g>
		<g>
			<path style="fill:#282828;" d="M170.962,112.897c-1.401,0-2.541-1.032-2.541-2.301c0-1.269,1.14-2.301,2.541-2.301
				c1.401,0,2.541,1.032,2.541,2.301c0,0.383-0.106,0.762-0.306,1.096l0,0C172.753,112.435,171.896,112.897,170.962,112.897z
				 M170.962,109.294c-0.85,0-1.541,0.584-1.541,1.301s0.691,1.301,1.541,1.301c0.584,0,1.112-0.275,1.377-0.718v0
				c0.109-0.182,0.164-0.377,0.164-0.583C172.503,109.878,171.811,109.294,170.962,109.294z"/>
		</g>
		<g>
			<path style="fill:#282828;" d="M170.972,116.694c-1.41,0-2.557-1.176-2.557-2.621v-3.272c0-0.276,0.224-0.5,0.5-0.5
				c0.276,0,0.5,0.224,0.5,0.5v3.272c0,0.894,0.699,1.621,1.557,1.621s1.557-0.727,1.557-1.621v-3.272c0-0.276,0.224-0.5,0.5-0.5
				s0.5,0.224,0.5,0.5v3.272C173.529,115.518,172.382,116.694,170.972,116.694z"/>
		</g>
	</g>
	<g>
		<path style="fill:#282828;" d="M159.712,621.857l-0.379-0.001l-0.204,0.001c-0.033,0-0.066-0.001-0.098-0.003
			c-11.99-0.032-31.425-1.95-40.815-3.24c-0.821-0.113-1.395-0.869-1.282-1.69c0.112-0.82,0.866-1.398,1.69-1.282
			c9.334,1.283,28.663,3.19,40.507,3.212c0.028,0,0.057,0.001,0.085,0.002l0.096-0.001c0.001,0,0.1,0,0.101,0l0.211,0.001
			c0.028-0.001,0.056-0.002,0.085-0.002c35.112-0.064,60.801-5.834,78.536-17.639c19.436-12.939,28.884-32.845,28.884-60.858
			c0-28.007-11.579-46.642-21.795-63.084c-6.992-11.252-13.03-20.971-13.868-31.548c-0.819-10.339,1.244-20.455,3.24-30.237
			c2.91-14.263,5.658-27.735-1.056-39.82c-6.605-11.889-21.889-16.987-33.548-19.171c-12.805-2.398-24.124-1.899-24.236-1.893
			c-0.407,0.014-0.801-0.127-1.097-0.404c-0.296-0.278-0.466-0.663-0.474-1.069c-0.035-2.066-3.503-206.761-3.833-216.139
			c-0.302-8.601,4.201-14.115,5.691-15.696c0.283-6.898,2.67-64.86,3.151-69.028c0.15-1.301,0.047-2.194-0.299-2.582
			c-0.455-0.511-1.794-0.58-3.044-0.58c-1.601,0-6.171,0.521-12.868,1.466c-0.817,0.113-1.579-0.455-1.695-1.276
			c-0.116-0.82,0.456-1.579,1.276-1.695c4.832-0.682,11.061-1.495,13.287-1.495c1.874,0,3.981,0.123,5.284,1.584
			c0.971,1.089,1.302,2.653,1.04,4.922c-0.488,4.229-3.131,68.738-3.158,69.39c-0.016,0.399-0.191,0.774-0.485,1.045
			c-0.052,0.048-5.485,5.194-5.182,13.841c0.315,8.975,3.488,195.793,3.809,214.674c8.322-0.162,46.62,0.358,59.003,22.65
			c7.253,13.055,4.397,27.055,1.373,41.876c-1.954,9.579-3.974,19.483-3.189,29.4c0.78,9.85,6.641,19.282,13.426,30.202
			c9.911,15.951,22.246,35.803,22.246,64.667c0,28.69-10.168,50.006-30.222,63.355c-18.225,12.132-44.424,18.066-80.098,18.142
			C159.777,621.856,159.745,621.857,159.712,621.857z"/>
	</g>
	<g>
		<path style="fill:#282828;" d="M110.672,617.003c-0.119,0-0.24-0.015-0.361-0.044c-3.671-0.909-6.674-1.823-9.324-2.629
			l-0.876-0.266c-0.792-0.241-1.24-1.078-1-1.871c0.24-0.793,1.075-1.242,1.871-1l0.878,0.267c2.614,0.796,5.578,1.698,9.171,2.587
			c0.804,0.199,1.295,1.012,1.096,1.817C111.958,616.546,111.345,617.003,110.672,617.003z"/>
	</g>
	<g>
		<path style="fill:#282828;" d="M93.337,611.191c-0.195,0-0.393-0.038-0.584-0.119c-29.635-12.522-44.042-35.654-44.042-70.715
			c0-28.863,12.335-48.715,22.246-64.667c6.785-10.92,12.646-20.352,13.426-30.202c0.785-9.917-1.235-19.821-3.189-29.4
			c-3.024-14.822-5.88-28.822,1.373-41.876c12.382-22.29,50.676-22.816,59.004-22.65c0.32-18.881,3.494-205.699,3.809-214.674
			c0.303-8.647-5.13-13.793-5.185-13.845c-0.29-0.269-0.465-0.645-0.482-1.041c-0.027-0.651-2.67-65.16-3.158-69.39
			c-0.262-2.269,0.069-3.833,1.04-4.922c1.302-1.461,3.41-1.584,5.284-1.584c2.293,0,8.771,0.853,13.802,1.568
			c0.82,0.116,1.39,0.876,1.273,1.696c-0.116,0.82-0.875,1.392-1.696,1.273c-6.874-0.978-11.75-1.538-13.379-1.538
			c-1.25,0-2.589,0.069-3.045,0.58c-0.346,0.388-0.449,1.281-0.299,2.582c0.481,4.168,2.868,62.13,3.151,69.029
			c1.49,1.581,5.993,7.095,5.691,15.696c-0.329,9.378-3.798,214.073-3.832,216.139c-0.007,0.406-0.178,0.791-0.474,1.068
			c-0.296,0.278-0.699,0.418-1.097,0.405c-0.452-0.021-45.061-1.84-57.785,21.064c-6.713,12.085-3.965,25.557-1.056,39.82
			c1.996,9.782,4.059,19.898,3.24,30.237c-0.837,10.577-6.876,20.295-13.868,31.548c-10.216,16.441-21.794,35.076-21.794,63.084
			c0,33.723,13.807,55.95,42.209,67.952c0.763,0.323,1.12,1.203,0.798,1.966C94.477,610.847,93.922,611.191,93.337,611.191z"/>
	</g>
	<g>
		<path style="fill:#282828;" d="M171.962,140.107h-24.25c-0.829,0-1.5-0.671-1.5-1.5c0-0.829,0.671-1.5,1.5-1.5h24.25
			c0.829,0,1.5,0.671,1.5,1.5C173.462,139.435,172.791,140.107,171.962,140.107z"/>
	</g>
	<g>
		<path style="fill:#282828;" d="M159.046,407.107c-8.932,0-16.082-0.995-16.153-1.005c-0.25-0.035-0.435-0.251-0.43-0.504
			l1.917-108c0.005-0.276,0.215-0.498,0.509-0.491c0.276,0.005,0.496,0.233,0.491,0.509l-1.909,107.554
			c1.677,0.212,7.974,0.938,15.576,0.938c7.595,0,13.7-0.724,15.331-0.937l-0.331-77.561c-0.001-0.276,0.222-0.501,0.498-0.502
			c0,0,0.002,0,0.002,0c0.275,0,0.499,0.223,0.5,0.498l0.333,78c0.001,0.249-0.181,0.46-0.428,0.497
			C174.883,406.112,167.979,407.107,159.046,407.107z"/>
	</g>
	<g>
		<path style="fill:#282828;" d="M163.72,406.476c13.673,2.174,24.125,14.018,24.125,28.304c0,15.829-12.832,28.661-28.661,28.661
			c-15.829,0-28.66-12.832-28.66-28.661c0-14.163,10.273-25.926,23.773-28.245L163.72,406.476z"/>
	</g>
	<g>
		<g>
			<path style="fill:#282828;" d="M159.185,470.098c-19.482,0-35.333-15.85-35.333-35.333c0-12.601,6.79-24.339,17.72-30.636
				c0.219-0.126,1.292-0.747,1.432-0.646c0.32,0.229-0.413,1.542-0.125,2.042c0.144,0.25,1.349,0.073,1.458,0.208
				c0.205,0.253-0.8,0.726-1.268,0.996c-10.003,5.763-16.217,16.506-16.217,28.037c0,17.829,14.504,32.333,32.333,32.333
				c17.829,0,32.333-14.504,32.333-32.333c0-11.93-6.535-22.852-17.055-28.503c-0.729-0.392-0.1-0.258,0.292-0.988
				c0.392-0.729,0.396-2.049,1.128-1.654c11.495,6.174,18.635,18.109,18.635,31.146
				C194.518,454.248,178.667,470.098,159.185,470.098z"/>
		</g>
	</g>
	<g>
		<path style="fill:#282828;" d="M130.439,410.518c-0.115,0-0.23-0.039-0.325-0.12c-0.21-0.179-0.235-0.495-0.056-0.705
			c2.858-3.349,6.238-6.16,10.046-8.353c0.114-0.055,1.82-0.833,2.539-1.029c0.265-0.073,0.542,0.084,0.614,0.351
			c0.073,0.266-0.085,0.541-0.351,0.614c-0.532,0.145-1.872,0.736-2.344,0.952c-3.667,2.115-6.959,4.853-9.743,8.115
			C130.72,410.459,130.58,410.518,130.439,410.518z"/>
	</g>
	<g>
		<path style="fill:#282828;" d="M125.583,417.747c-0.077,0-0.155-0.018-0.229-0.056c-0.246-0.126-0.342-0.428-0.215-0.673
			c0.895-1.735,1.932-3.418,3.084-5c0.163-0.223,0.476-0.272,0.699-0.11c0.223,0.163,0.273,0.475,0.11,0.699
			c-1.123,1.541-2.133,3.179-3.004,4.869C125.939,417.649,125.765,417.747,125.583,417.747z"/>
	</g>
	<g>
		<path style="fill:#282828;" d="M159.185,472.809c-21.106,0-38.278-17.171-38.278-38.278c0-5.099,0.986-10.051,2.932-14.718
			c0.106-0.255,0.401-0.374,0.654-0.269c0.255,0.106,0.376,0.399,0.269,0.654c-1.895,4.544-2.855,9.367-2.855,14.333
			c0,20.555,16.723,37.278,37.278,37.278c20.555,0,37.277-16.723,37.277-37.278c0-13.755-7.534-26.346-19.663-32.861
			c-0.243-0.131-0.335-0.434-0.204-0.677c0.131-0.243,0.433-0.335,0.677-0.204c12.453,6.689,20.189,19.619,20.189,33.742
			C197.462,455.638,180.291,472.809,159.185,472.809z"/>
	</g>
	<g>
		<path style="fill:#282828;" d="M174.462,466.107c0,0-5.083,18.833,4.083,31c9.167,12.167,36.333,8.667,44.333-1.667
			c8-10.333-0.667-42.167-17-67.5c-16.333-25.333-23.667-31.667-23.667-31.667s-3.333-2.167-7.333-2.167v11.5
			c0,0,19.796,10.015,17.333,31.167C189.379,461.107,174.462,466.107,174.462,466.107z"/>
	</g>
	<g>
		<path style="fill:#282828;" d="M151.343,112.481c-0.267,0-0.489-0.211-0.499-0.481l-0.672-17.708
			c-0.011-0.276,0.205-0.508,0.48-0.518c0.275-0.015,0.508,0.204,0.519,0.48l0.672,17.708c0.011,0.276-0.205,0.508-0.48,0.518
			C151.356,112.481,151.349,112.481,151.343,112.481z"/>
	</g>
	<g>
		<path style="fill:#282828;" d="M149.712,518.607c-0.001,0-0.003,0-0.003,0c-0.276-0.002-0.499-0.228-0.497-0.503l2.667-378.833
			l-0.848-22.332c-0.011-0.276,0.205-0.508,0.48-0.518c0.278-0.029,0.508,0.205,0.519,0.48l0.849,22.354l-2.667,378.855
			C150.21,518.385,149.987,518.607,149.712,518.607z"/>
	</g>
	<g>
		<path style="fill:#282828;" d="M143.587,518.732c-0.002,0-0.004,0-0.007,0c-0.276-0.004-0.497-0.231-0.493-0.507l5.125-379.375
			l1.418-20.902c0.019-0.275,0.263-0.474,0.533-0.465c0.276,0.019,0.484,0.257,0.465,0.533l-1.417,20.875l-5.124,379.348
			C144.083,518.513,143.86,518.732,143.587,518.732z"/>
	</g>
	<g>
		<path style="fill:#282828;" d="M155.879,518.774c-0.271-0.025-0.501-0.225-0.5-0.502l1.167-379.667l-6.644-67.137
			c-0.027-0.275,0.173-0.519,0.448-0.547c0.271-0.019,0.52,0.174,0.547,0.448l6.646,67.188l-1.164,379.718
			C156.378,518.551,156.155,518.774,155.879,518.774z"/>
	</g>
	<g>
		<path style="fill:#282828;" d="M169.911,86.084c-0.027,0-0.056-0.003-0.084-0.007c-0.272-0.046-0.456-0.304-0.41-0.576
			l2.302-13.643c0.046-0.272,0.302-0.455,0.576-0.41c0.272,0.046,0.456,0.304,0.41,0.576l-2.302,13.644
			C170.362,85.911,170.15,86.084,169.911,86.084z"/>
	</g>
	<g>
		<path style="fill:#282828;" d="M161.712,518.107c-0.276,0-0.499-0.223-0.5-0.499l-0.75-379l7.43-44.069
			c0.046-0.272,0.304-0.453,0.576-0.41c0.273,0.046,0.456,0.304,0.41,0.576l-7.423,43.985l0.757,378.916
			c0.001,0.276-0.223,0.501-0.499,0.501C161.713,518.107,161.713,518.107,161.712,518.107z"/>
	</g>
	<g>
		<path style="fill:#282828;" d="M167.879,517.774c-0.275,0-0.498-0.222-0.5-0.497l-2.417-378.541l2.991-20.88
			c0.04-0.273,0.295-0.463,0.566-0.424c0.273,0.04,0.463,0.293,0.424,0.566l-2.986,20.806l2.422,378.467
			c0.002,0.276-0.221,0.501-0.497,0.503C167.881,517.774,167.88,517.774,167.879,517.774z"/>
	</g>
	<g>
		<path style="fill:#282828;" d="M169.738,109.445c-0.023,0-0.047-0.002-0.071-0.005c-0.273-0.039-0.463-0.293-0.424-0.566
			l2.058-14.337c0.039-0.273,0.293-0.46,0.566-0.424c0.273,0.039,0.463,0.293,0.424,0.566l-2.058,14.337
			C170.197,109.265,169.983,109.445,169.738,109.445z"/>
	</g>
	<g>
		<path style="fill:#282828;" d="M173.879,518.107c-0.274,0-0.497-0.22-0.5-0.495l-4.167-379.333l1.958-19.884
			c0.027-0.275,0.269-0.475,0.546-0.449c0.275,0.027,0.476,0.272,0.449,0.546l-1.955,19.83l4.17,379.279
			c0.003,0.276-0.218,0.503-0.495,0.505C173.883,518.107,173.881,518.107,173.879,518.107z"/>
	</g>
	<g>
		<path style="fill:#282828;" d="M172.379,162.94h-25.5c-0.276,0-0.5-0.224-0.5-0.5s0.224-0.5,0.5-0.5h25.5
			c0.276,0,0.5,0.224,0.5,0.5S172.656,162.94,172.379,162.94z"/>
	</g>
	<g>
		<path style="fill:#282828;" d="M172.379,184.274h-25.5c-0.276,0-0.5-0.224-0.5-0.5s0.224-0.5,0.5-0.5h25.5
			c0.276,0,0.5,0.224,0.5,0.5S172.656,184.274,172.379,184.274z"/>
	</g>
	<g>
		<path style="fill:#282828;" d="M172.379,203.774h-25.5c-0.276,0-0.5-0.224-0.5-0.5s0.224-0.5,0.5-0.5h25.5
			c0.276,0,0.5,0.224,0.5,0.5S172.656,203.774,172.379,203.774z"/>
	</g>
	<g>
		<path style="fill:#282828;" d="M172.379,222.44h-25.5c-0.276,0-0.5-0.224-0.5-0.5s0.224-0.5,0.5-0.5h25.5
			c0.276,0,0.5,0.224,0.5,0.5S172.656,222.44,172.379,222.44z"/>
	</g>
	<g>
		<path style="fill:#282828;" d="M174.046,239.607h-28.834c-0.276,0-0.5-0.224-0.5-0.5c0-0.276,0.224-0.5,0.5-0.5h28.834
			c0.276,0,0.5,0.224,0.5,0.5C174.546,239.383,174.322,239.607,174.046,239.607z"/>
	</g>
	<g>
		<path style="fill:#282828;" d="M174.046,256.107h-28.834c-0.276,0-0.5-0.224-0.5-0.5c0-0.276,0.224-0.5,0.5-0.5h28.834
			c0.276,0,0.5,0.224,0.5,0.5C174.546,255.883,174.322,256.107,174.046,256.107z"/>
	</g>
	<g>
		<path style="fill:#282828;" d="M174.046,270.607h-28.834c-0.276,0-0.5-0.224-0.5-0.5s0.224-0.5,0.5-0.5h28.834
			c0.276,0,0.5,0.224,0.5,0.5S174.322,270.607,174.046,270.607z"/>
	</g>
	<g>
		<path style="fill:#282828;" d="M174.046,284.774h-28.834c-0.276,0-0.5-0.224-0.5-0.5s0.224-0.5,0.5-0.5h28.834
			c0.276,0,0.5,0.224,0.5,0.5S174.322,284.774,174.046,284.774z"/>
	</g>
	<g>
		<path style="fill:#282828;" d="M174.046,297.94h-28.834c-0.276,0-0.5-0.224-0.5-0.5s0.224-0.5,0.5-0.5h28.834
			c0.276,0,0.5,0.224,0.5,0.5S174.322,297.94,174.046,297.94z"/>
	</g>
	<g>
		<path style="fill:#282828;" d="M174.046,310.274h-28.834c-0.276,0-0.5-0.224-0.5-0.5s0.224-0.5,0.5-0.5h28.834
			c0.276,0,0.5,0.224,0.5,0.5S174.322,310.274,174.046,310.274z"/>
	</g>
	<g>
		<path style="fill:#282828;" d="M174.046,322.44h-28.834c-0.276,0-0.5-0.224-0.5-0.5s0.224-0.5,0.5-0.5h28.834
			c0.276,0,0.5,0.224,0.5,0.5S174.322,322.44,174.046,322.44z"/>
	</g>
	<g>
		<path style="fill:#282828;" d="M174.046,333.107h-28.834c-0.276,0-0.5-0.224-0.5-0.5s0.224-0.5,0.5-0.5h28.834
			c0.276,0,0.5,0.224,0.5,0.5S174.322,333.107,174.046,333.107z"/>
	</g>
	<g>
		<path style="fill:#282828;" d="M176.087,343.44h-32.875c-0.276,0-0.5-0.224-0.5-0.5s0.224-0.5,0.5-0.5h32.875
			c0.276,0,0.5,0.224,0.5,0.5S176.364,343.44,176.087,343.44z"/>
	</g>
	<g>
		<path style="fill:#282828;" d="M174.046,353.107h-31.084c-0.276,0-0.5-0.224-0.5-0.5s0.224-0.5,0.5-0.5h31.084
			c0.276,0,0.5,0.224,0.5,0.5S174.322,353.107,174.046,353.107z"/>
	</g>
	<g>
		<path style="fill:#282828;" d="M174.046,362.107h-30.459c-0.276,0-0.5-0.224-0.5-0.5s0.224-0.5,0.5-0.5h30.459
			c0.276,0,0.5,0.224,0.5,0.5S174.322,362.107,174.046,362.107z"/>
	</g>
	<g>
		<path style="fill:#282828;" d="M174.587,370.857h-31c-0.276,0-0.5-0.224-0.5-0.5s0.224-0.5,0.5-0.5h31c0.276,0,0.5,0.224,0.5,0.5
			S174.864,370.857,174.587,370.857z"/>
	</g>
	<g>
		<path style="fill:#282828;" d="M174.587,378.982h-31c-0.276,0-0.5-0.224-0.5-0.5s0.224-0.5,0.5-0.5h31c0.276,0,0.5,0.224,0.5,0.5
			S174.864,378.982,174.587,378.982z"/>
	</g>
	<g>
		<path style="fill:#282828;" d="M174.587,386.482h-31c-0.276,0-0.5-0.224-0.5-0.5s0.224-0.5,0.5-0.5h31c0.276,0,0.5,0.224,0.5,0.5
			S174.864,386.482,174.587,386.482z"/>
	</g>
	<g>
		<path style="fill:#282828;" d="M174.587,393.732h-31c-0.276,0-0.5-0.224-0.5-0.5s0.224-0.5,0.5-0.5h31c0.276,0,0.5,0.224,0.5,0.5
			S174.864,393.732,174.587,393.732z"/>
	</g>
	<g>
		<path style="fill:#282828;" d="M174.587,400.232h-31c-0.276,0-0.5-0.224-0.5-0.5s0.224-0.5,0.5-0.5h31c0.276,0,0.5,0.224,0.5,0.5
			S174.864,400.232,174.587,400.232z"/>
	</g>
	<g>
		<circle style="fill:#282828;" cx="158.962" cy="230.545" r="1.125"/>
	</g>
	<g>
		<circle style="fill:#282828;" cx="158.962" cy="262.857" r="1.125"/>
	</g>
	<g>
		<circle style="fill:#282828;" cx="158.962" cy="291.19" r="1.125"/>
	</g>
	<g>
		<circle style="fill:#282828;" cx="158.962" cy="357.524" r="1.125"/>
	</g>
	<g>
		<circle style="fill:#282828;" cx="153.546" cy="327.274" r="1.125"/>
	</g>
	<g>
		<circle style="fill:#282828;" cx="164.046" cy="327.274" r="1.125"/>
	</g>
	<path style="fill:#282828;" d="M197.441,506.482h-37.41c0,0-0.011,0-0.012,0h-37.41c-3.321,0-6.769,1.625-6.897,10.875
		c0,0,8.046-0.75,13.41,2.875c5.363,3.624,16.853,12.37,30.896,12.375v0c0.002,0,0.004,0,0.006,0c0.002,0,0.004,0,0.006,0v0
		c14.044-0.005,25.534-8.751,30.896-12.375c5.364-3.625,13.41-2.875,13.41-2.875C204.21,508.107,200.761,506.482,197.441,506.482z
		 M143.6,522.815c-0.953,0-1.728-0.775-1.728-1.728c0-0.035,0.001-0.07,0.003-0.104c-0.423-0.201-0.69-0.611-0.69-1.083
		c0-0.677,0.55-1.227,1.227-1.227c0.484,0,0.903,0.281,1.103,0.688c0.028-0.002,0.056-0.002,0.085-0.002
		c0.953,0,1.728,0.775,1.728,1.728C145.327,522.04,144.552,522.815,143.6,522.815z M149.71,522.815
		c-0.953,0-1.728-0.775-1.728-1.728c0-0.035,0.001-0.07,0.003-0.104c-0.423-0.201-0.69-0.611-0.69-1.083
		c0-0.677,0.55-1.227,1.227-1.227c0.484,0,0.903,0.281,1.103,0.688c0.028-0.002,0.056-0.002,0.084-0.002
		c0.953,0,1.728,0.775,1.728,1.728C151.438,522.04,150.663,522.815,149.71,522.815z M155.82,522.815
		c-0.953,0-1.728-0.775-1.728-1.728c0-0.035,0.001-0.07,0.003-0.104c-0.423-0.201-0.69-0.611-0.69-1.083
		c0-0.677,0.55-1.227,1.227-1.227c0.483,0,0.903,0.281,1.102,0.688c0.028-0.002,0.057-0.002,0.085-0.002
		c0.953,0,1.728,0.775,1.728,1.728C157.548,522.04,156.773,522.815,155.82,522.815z M161.93,522.815
		c-0.953,0-1.728-0.775-1.728-1.728c0-0.035,0.001-0.07,0.003-0.104c-0.422-0.201-0.69-0.611-0.69-1.083
		c0-0.677,0.551-1.227,1.227-1.227c0.483,0,0.903,0.281,1.103,0.688c0.028-0.002,0.057-0.002,0.085-0.002
		c0.953,0,1.728,0.775,1.728,1.728C163.659,522.04,162.883,522.815,161.93,522.815z M168.041,522.815
		c-0.953,0-1.728-0.775-1.728-1.728c0-0.035,0.001-0.07,0.003-0.104c-0.422-0.201-0.69-0.611-0.69-1.083
		c0-0.677,0.551-1.227,1.227-1.227c0.483,0,0.903,0.281,1.103,0.688c0.028-0.002,0.057-0.002,0.085-0.002
		c0.953,0,1.728,0.775,1.728,1.728C169.769,522.04,168.993,522.815,168.041,522.815z M174.151,522.815
		c-0.953,0-1.728-0.775-1.728-1.728c0-0.035,0.001-0.07,0.003-0.104c-0.422-0.201-0.69-0.611-0.69-1.083
		c0-0.677,0.551-1.227,1.227-1.227c0.483,0,0.903,0.281,1.103,0.688c0.028-0.002,0.057-0.002,0.085-0.002
		c0.953,0,1.728,0.775,1.728,1.728C175.879,522.04,175.104,522.815,174.151,522.815z M178.687,513.191l-39.303,2.992
		c-0.525,0.04-0.988-0.357-1.028-0.883c-0.04-0.525,0.357-0.988,0.883-1.028l39.303-2.992c0.525-0.04,0.988,0.357,1.028,0.883
		C179.609,512.689,179.212,513.151,178.687,513.191z M198.775,509.273h-77.5c-0.276,0-0.5-0.224-0.5-0.5c0-0.276,0.224-0.5,0.5-0.5
		h77.5c0.276,0,0.5,0.224,0.5,0.5C199.275,509.05,199.051,509.273,198.775,509.273z"/>
	<g>
		<path style="fill:#282828;" d="M123.696,345.635c-0.232,0-0.441-0.163-0.489-0.4c-0.056-0.271,0.119-0.535,0.39-0.59
			c5.804-1.187,12.109-1.789,18.741-1.789c0.276,0,0.5,0.224,0.5,0.5s-0.224,0.5-0.5,0.5c-6.564,0-12.802,0.595-18.54,1.768
			C123.763,345.632,123.729,345.635,123.696,345.635z"/>
	</g>
	<g>
		<path style="fill:#282828;" d="M113.296,348.565c-0.203,0-0.394-0.124-0.468-0.325c-0.097-0.259,0.035-0.546,0.294-0.643
			c2.439-0.911,2.52-0.933,4.568-1.484l1.039-0.28c0.266-0.073,0.541,0.085,0.613,0.352c0.072,0.267-0.085,0.541-0.352,0.613
			l-1.04,0.281c-2.043,0.55-2.083,0.56-4.478,1.455C113.413,348.555,113.354,348.565,113.296,348.565z"/>
	</g>
	<g>
		<path style="fill:#282828;" d="M82.275,376.919c-0.05,0-0.102-0.008-0.153-0.024c-0.263-0.084-0.408-0.366-0.323-0.629
			c0.056-0.175,1.421-4.349,5.407-9.767c3.669-4.988,10.348-11.989,21.327-17.015c0.251-0.116,0.548-0.004,0.663,0.247
			c0.115,0.251,0.004,0.548-0.247,0.663c-20.627,9.442-26.145,26.012-26.198,26.178C82.683,376.784,82.486,376.919,82.275,376.919z"
			/>
	</g>
	<g>
		<path style="fill:#282828;" d="M236.671,376.919c-0.211,0-0.408-0.135-0.476-0.347c-0.105-0.327-11.094-32.715-59.586-32.715
			c-0.276,0-0.5-0.224-0.5-0.5s0.224-0.5,0.5-0.5c14.192,0,34.199,2.892,48.92,16.666c8.827,8.26,11.509,16.401,11.619,16.744
			c0.084,0.263-0.061,0.544-0.323,0.629C236.773,376.911,236.722,376.919,236.671,376.919z"/>
	</g>
	<g>
		<path style="fill:#282828;" d="M145.795,138.857c-0.261,0-0.481-0.203-0.499-0.467c-0.311-4.745-3.777-6.57-3.812-6.587
			c-0.143-0.073-0.242-0.211-0.267-0.37l-1.416-9.25c-0.042-0.273,0.145-0.528,0.418-0.57c0.273-0.044,0.528,0.146,0.57,0.418
			l1.38,9.012c0.864,0.527,3.822,2.658,4.125,7.281c0.018,0.275-0.191,0.514-0.466,0.532
			C145.817,138.856,145.807,138.857,145.795,138.857z"/>
	</g>
	<g>
		<path style="fill:#282828;" d="M172.963,138.857c-0.011,0-0.022,0-0.033-0.001c-0.275-0.018-0.484-0.256-0.466-0.532
			c0.303-4.624,3.261-6.754,4.125-7.281l1.38-9.012c0.041-0.272,0.291-0.462,0.57-0.418c0.273,0.041,0.46,0.297,0.418,0.57
			l-1.417,9.25c-0.024,0.158-0.124,0.295-0.265,0.369c-0.143,0.074-3.504,1.868-3.813,6.588
			C173.444,138.654,173.224,138.857,172.963,138.857z"/>
	</g>
</g>
</svg>
